<svg id="icon" height="512" viewBox="0 0 340 340" width="512" xmlns="http://www.w3.org/2000/svg"><path d="m82.217 112.3a53.035 53.035 0 0 0 24.621 6.839l-16.019 43.188c-12.368 1.034-21.72-7.759-28.724-24.2z" fill="#ffd7cd"/><path d="m73.239 133.98a38.13 38.13 0 0 0 8.98-21.684 48.035 48.035 0 0 1 -13.17-10.596l-28.086 16.814c5.631 37.529 41.679 65.86 41.679 65.86l8.177-22.047a64.81 64.81 0 0 1 -17.742-15.49 10.293 10.293 0 0 1 .162-12.857z" fill="#f79089"/><path d="m243 100.8-80.33 10.335c-25.56 1.87-55.832 8-55.832 8-11.746 11.3-17.79 26.868-20.9 39.963l60.792 58.062 52.333 2.226 64.843-17.056s9.155-35.508 50.211-54.094c0 0-35.231-50.766-71.117-47.436z" fill="#fdfbff"/><g fill="#b9b4d3"><path d="m143.333 217.016-3.685-41.89c-25.656-.665-42.717-8.091-53.709-16.024a119.482 119.482 0 0 0 -3.3 25.272s6.431 6.073 18.935 13.219a45.66 45.66 0 0 1 17.683 18.4z"/><path d="m263.906 202.33a68.83 68.83 0 0 1 6.7-15.2c-25.685-16.586-28.817-45.916-28.817-45.916l-5.529 45.071-3.219 24.16z"/><path d="m230.879 123.65-84.089-2.976s-7.048 41.085 17.367 58.847a3.277 3.277 0 0 0 3.866 0 18.588 18.588 0 0 0 4.782-5.051 45.423 45.423 0 0 0 19.523 17.976 9.613 9.613 0 0 0 7.055.482c10.982-3.522 42.494-18.228 31.496-69.278z"/></g><path d="m136.546 114.551c-2.042 5.764-9.163 27.3-13.657 59.057-.86 6.075 17.314 130.618 17.314 130.618l123.123-5.655c1.877-47.282 1.159-90.936-11.5-117.9a49.393 49.393 0 0 1 -5.433-19.406c-1.29-20.209-1.294-36.469-.939-48-16.122 1.316-20.207 28.454-21.37 61.86.213 2.884.454 5.749.727 8.575a20.258 20.258 0 0 1 -20.177 22.193h-25.455a28.075 28.075 0 0 1 -28.06-26.919c-.217-5.287-.381-11.1-.432-17.216-.158-19.089-14.141-47.207-14.141-47.207z" fill="#d88783"/><path d="m255.072 186.255a59.4 59.4 0 0 1 -3.245-5.58c11.8 41.777-12.085 62.3-12.085 62.3l-100.2 6.461c9.928-71.8-16.571-75.814-16.652-75.826-.86 6.076-1.625 12.521-2.239 19.307a384.842 384.842 0 0 0 -1.452 44.246l27.529 90.418h161.592v-102.259s-36.142-12.974-53.248-39.067z" fill="#874f4f"/><path d="m150.713 164.113-.023-2.354c-.159-19.091.781-41.061 4.64-58.773 0 0-15.709 1.5-18.784 11.565 0 0-7.335 25.53 14.167 49.562z" fill="#874f4f"/><path d="m224.086 175.126c4.871-6.872 25.779-26.89 21.814-71.885-.47-5.338-3.929-9.859-9.288-9.859h-12.986s-2.415 42.673.46 81.744z" fill="#874f4f"/><path d="m155.55 85.291s-5.691-52.662 40.795-54.736c0 0 34.55-3.172 34.966 39.287l-27.157 53.441h-43.554z" fill="#ffd7cd"/><path d="m170.967 101.829a20.533 20.533 0 0 1 1.119-5.428.972.972 0 0 0 -1.5-1.1c-1.833 1.335-3.938 3.985-4.545 9.209z" fill="#f79089"/><path d="m226.414 67.042v26.558s10.8 1.554 15.028-6.666a13.4 13.4 0 0 0 -2.342-15.781c-2.453-2.353-6.388-4.291-12.686-4.111z" fill="#f79089"/><path d="m226.414 67.042s-12.14-1.512-12.14 16.287c0 0-.706 12.207-11.53 15.616a13.884 13.884 0 0 0 -8.63 7.466c-1.465 3.315-4.787 6.631-12.215 6.631 0 0-9.811.841-10.932-11.213 0 0-13.787-1.362-15.417-16.538 0 0-18.36 35.6-2.1 68.115 0 0 3.977 8.409 9.373 13.869a3.459 3.459 0 0 0 4.287.532 16.336 16.336 0 0 0 6.1-7.253s2.9 10.982 17.538 19.508a7.2 7.2 0 0 0 7.247-.018c10.01-5.827 37.049-24.684 32.885-56.394-4.927-37.516-4.466-56.608-4.466-56.608z" fill="#3c3c4f"/><path d="m329.553 197.049a75.962 75.962 0 0 0 -15.436-48.813s-31.64 8.728-44.859 37.99c18.33 18.674 38.254 23.757 60.295 10.823z" fill="#ffd7cd"/><path d="m271.674 223.968 47.436 12.206a90.666 90.666 0 0 0 10.439-39.125c-28.073 3.738-47.235-1.89-60.287-10.821a62.535 62.535 0 0 0 -4.059 12.218s11.187 10.264 6.471 25.522z" fill="#f79089"/><path d="m243 264.192s3.152-40.5 35.609-47.159c14.229-2.919 24.619.72 31.8 5.728 0 0 12.232 18.866-22.186 37.729s-45.223 3.702-45.223 3.702z" fill="#ffc290"/><path d="m310.408 222.765c-.056 8.336-4.2 19.828-23.572 27.422h-21.636v4.295s-1.94 18.41-22.2 21.791v6.782c52.751 8.03 71.875-22.411 77.994-37.372a14.9 14.9 0 0 0 -2.168-15.07 41.717 41.717 0 0 0 -8.418-7.848z" fill="#e3805b"/><path d="m196.585 265.129c-6.171 14.539-21.11 15.714-21.11 15.714a32.746 32.746 0 0 0 -28.745 32.5v14.235h-86.882c2.465-28.8-12.135-38.987-22.142-42.58a13.539 13.539 0 0 1 -8.859-12.782v-7.094c50.453-2.274 107.34-1.864 167.738.007z" fill="#e4efff"/><path d="m28.847 254.482v10.641h167.725a33.777 33.777 0 0 0 2.491-10.641c-55.831-4.115-116.448-4.321-170.216 0z" fill="#899ac4"/><path d="m136.098 237.85h-46.677l-15.527 16.632h60.463z" fill="#fdfbff"/><path d="m134.357 254.482h27.516l4.645-16.632h-30.418a40.82 40.82 0 0 0 -1.743 16.632z" fill="#cfd1e3"/><path d="m180.192 234.1a14.9 14.9 0 0 0 -11.35-5.248h-11.614a7.742 7.742 0 0 0 -7.742 7.742v10.146a7.742 7.742 0 0 0 7.742 7.742h172.772v-15.136h-138.458a14.9 14.9 0 0 1 -11.35-5.246z" fill="#3c3c4f"/><path d="m40.952 134.378c12.948-3.349 30.048-10.978 35.521-28.204a26.325 26.325 0 0 0 1.152-7.351c.183-7.8 1.15-29.721 6.244-44.274h-20.82c-30.335 14.614-36.681 50.059-33.125 68.812 1.656 8.739 10.991 11.027 11.028 11.017z" fill="#ffc290"/><rect fill="#e4efff" height="69.757" rx="9.411" width="37.846" x="92.402" y="12.422"/><path d="m17.155 37.867h42.824a0 0 0 0 1 0 0v17.2a0 0 0 0 1 0 0h-42.824a6.118 6.118 0 0 1 -6.118-6.118v-4.96a6.118 6.118 0 0 1 6.118-6.122z" fill="#874f4f"/><path d="m10 237.85v10.75a5.883 5.883 0 0 0 5.884 5.883h58.01a82.18 82.18 0 0 0 15.527-16.633z" fill="#ff6a84"/><path d="m131.815 285h-94.109c10.007 3.593 24.607 13.782 22.142 42.58h18.432c-1.095-27.815 14.12-27.236 14.12-27.236h27.451a15.074 15.074 0 0 0 12.222-6.252l2.571-3.562a3.49 3.49 0 0 0 -2.829-5.53z" fill="#899ac4"/><path d="m45.472 45.343s-23.03 30.4-21.527 76.677a13.292 13.292 0 0 0 16.569 12.47c.145-.036.292-.076.437-.114-2.506-2.031-4.342-5.184-5.057-9.872-2.426-15.906 1.489-32.461 4.627-42.331a12.91 12.91 0 0 1 12.307-9h12.921l14.131-19.581z" fill="#e3805b"/><path d="m87.462 62.123-2.1 11.685a10.14 10.14 0 0 1 -9.982 8.351h-11.94a8.388 8.388 0 0 1 -8.15-10.359 30.376 30.376 0 0 1 5.1-10.759z" fill="#e3805b"/><path d="m44.812 36.142a45.053 45.053 0 0 0 -5.3 14.752 11.533 11.533 0 0 0 11.348 13.535h32.447a9.1 9.1 0 0 0 9.093-9.094v-17.515a9.319 9.319 0 0 0 -9.317-9.32h-24.941a15.368 15.368 0 0 0 -13.33 7.642z" fill="#ffc290"/><path d="m229.186 225.91h19.414a16.6 16.6 0 0 1 16.6 16.6v11.973c0 18.187-12.043 39.978-40.969 21.021-6.249-4.214-11.648-10.561-11.648-19.911v-13.084a16.6 16.6 0 0 1 16.603-16.599z" fill="#ffc290"/><path d="m10 257.982h15.347v14.235a17.055 17.055 0 0 0 11.176 16.076c10.257 3.683 22.025 13.436 19.838 38.987a3.5 3.5 0 0 0 3.487 3.8h248.472a3.5 3.5 0 0 0 3.5-3.5c-.051-.521.1-60.241-.052-60.714a66.493 66.493 0 0 0 6.765-8.883h11.467a3.5 3.5 0 0 0 3.5-3.5v-15.137a3.5 3.5 0 0 0 -3.5-3.5h-4.836a18.079 18.079 0 0 0 -.74-2.437c5.632-12.254 19.561-50.868-7.447-87.192-1.54-2.214-33.511-47.562-68.811-49.035a12.667 12.667 0 0 0 -5.541-5.784c7.672-9.1 3.354-23.655-8.046-26.812-4.768-59.287-88.922-46.368-82.6 20.037a94.071 94.071 0 0 0 -6 17.091c-5.623 2.1-9.641 5.241-11.716 9.163-13.885 2.046-25.348 4.281-27.683 4.744a49.723 49.723 0 0 1 -26.639-8.879c2.038-7.939.832-12.189 2.013-22.777a13.77 13.77 0 0 0 6.99-10.3 12.918 12.918 0 0 0 12.865 12.011h19.025a12.926 12.926 0 0 0 12.911-12.911v-50.932a12.926 12.926 0 0 0 -12.908-12.912h-19.025a12.926 12.926 0 0 0 -12.912 12.912v4.58a12.715 12.715 0 0 0 -5.817-1.413h-24.941a18.914 18.914 0 0 0 -16.342 9.368h-24.645a9.628 9.628 0 0 0 -9.617 9.617v4.96a9.628 9.628 0 0 0 9.617 9.618h16.626a136.27 136.27 0 0 0 -13.335 63.57c.222 11.208 11.73 19.007 22.24 15.407 16.055 35.256 38.079 51.443 57.153 63.092a43.066 43.066 0 0 1 15.9 16.169q-.245 8.54-.1 17.549h-105.639a3.5 3.5 0 0 0 -3.5 3.5v16.632a3.5 3.5 0 0 0 3.5 3.5zm28.889 23.723a10.041 10.041 0 0 1 -6.542-9.488v-14.235h162.727c-3.521 17.816-19.064 19.3-20.027 19.387a36.292 36.292 0 0 0 -31.818 35.975v10.735h-79.657c1.087-28.657-14.818-38.832-24.683-42.374zm114.1-34.965v-10.149a4.246 4.246 0 0 1 4.242-4.242h11.614a11.374 11.374 0 0 1 8.683 4.016 18.369 18.369 0 0 0 14.017 6.481h17.544v8.136h-51.861a4.246 4.246 0 0 1 -4.242-4.242zm126.326-26.279c19.7-3.92 32.87 5.173 38.553 15.385h-50.324a20.122 20.122 0 0 0 -4.5-7.284 34.676 34.676 0 0 1 16.268-8.101zm-17.615 22.048c-.3 11.984 3.383 36.229-18.384 37.044-2.894-.576-27.233-5.974-27.233-23.961v-13.083a13.114 13.114 0 0 1 13.1-13.1h19.417a13.114 13.114 0 0 1 13.1 13.1zm-111.474 81.57v-10.735a29.285 29.285 0 0 1 25.674-29.028c2-.223 22.682-3.127 26.263-26.334h7.027c4.124 28.169 39.3 29.884 50.688 29.919 20.33 0 34.753-6.226 44.94-14.465v50.643zm109.074-43.211c7.643-6.226 9.459-19.067 9.392-22.886h41.328c-8.833 11.725-24.234 22.996-50.72 22.886zm67.2-29.886h-57.8v-8.136h57.8zm-6.7-24.582c-6.584-7.761-22.651-17.878-43.592-12.383a29.984 29.984 0 0 0 -6.944-16.323c4.346-10.451 16.131-31.625 43.7-45.046 20.244 29.271 12.336 59.831 6.836 73.752zm-11.364-79.92c-10.594 4.076-35.76 16.506-44.97 45.029-8.333-9.566-12.9-19.789-13.584-30.461a476.249 476.249 0 0 1 -.538-56.776c25.872 2.134 50.902 31.628 59.096 42.207zm-87.113 37.559c1.167 9.558-7.095 18.553-16.693 18.356h-25.451a24.515 24.515 0 0 1 -24.563-23.563c-.238-5.806-.378-11.481-.425-16.992a43.145 43.145 0 0 0 8.246 9.828c2.383 1.867 5.995.227 10.259-4 2.838 4.661 10.445 13.973 21.676 17.828 2.784-.531 11.039-4.708 22.636-15.648 1.062-1.061 2.062-2.142 3.031-3.232.335 6.162.761 12.002 1.288 17.422zm-26.971-5.974c-14.625-7.724-17.644-17.98-17.762-18.4a3.516 3.516 0 0 0 -6.568-.562 12.959 12.959 0 0 1 -4.718 5.716c-19.852-21.441-16.246-52.7-10.082-69.426a21.358 21.358 0 0 0 12.653 9.407c2.169 10.2 10.619 11.973 14.152 11.745 9.965-.047 13.852-5.475 15.284-8.716a10.371 10.371 0 0 1 6.48-5.542c12.979-4.088 13.938-18.155 13.973-18.752.14-6.19 1.1-10.382 5.153-12.427.119 7.508.831 25.156 4.488 53 4.17 31.725-25.95 50.097-33.049 53.956zm43.977-92.735c-1.634 3.178-4.8 4.216-7.471 4.478-.67-9.068-.876-15.462-.933-19.1 7.456.644 11.842 7.862 8.404 14.622zm-68.929-39.423c16.928-18.73 55.316-17.413 58.052 17.647-9.953-.964-16.939 7.2-16.676 19.642-.088 1.033-1.073 9.888-9.082 12.41a17.367 17.367 0 0 0 -10.78 9.39c-1.328 3.132-4.575 4.607-9.268 4.555-1.5.1-6.441-.229-7.186-8a5.212 5.212 0 0 1 1.1-3.273 3.5 3.5 0 0 0 -5.316-4.553 11.292 11.292 0 0 0 -2.126 3.789c-3.374-1.3-8.224-4.547-9.089-12.6-.029-.302-2.375-24.191 10.371-39.007zm-110.707 26.711a24.809 24.809 0 0 1 1.663-4.689h22.509c-.884 4.988-1 10.391-7.481 10.73h-11.944a4.916 4.916 0 0 1 -4.747-6.041zm37.207-50.785a5.918 5.918 0 0 1 5.911-5.912h19.025a5.918 5.918 0 0 1 5.911 5.912v50.935a5.918 5.918 0 0 1 -5.911 5.911h-19.024a5.918 5.918 0 0 1 -5.912-5.911zm-37.758 10.167h24.941a5.825 5.825 0 0 1 5.817 5.82v17.515a5.6 5.6 0 0 1 -5.593 5.594h-32.447a8.082 8.082 0 0 1 -7.9-9.43c1.717-8.336 5.03-19.481 15.182-19.499zm-43.6 16.944v-4.96a2.62 2.62 0 0 1 2.617-2.617h21.341a44.308 44.308 0 0 0 -2.59 10.2h-18.755a2.62 2.62 0 0 1 -2.617-2.622zm25.113 82.156a9.851 9.851 0 0 1 -12.213-9.191 131.286 131.286 0 0 1 12.1-59.137 15.707 15.707 0 0 0 13.261 5.16c-3.726 8.169 1.365 17.665 10.633 17.73h11.357c-.441 5.691-.606 10.481-.668 13.081-.545 18.738-20.45 29.168-34.47 32.357zm9.733 4.34c10.651-3.849 21.815-10.521 27.861-22.07a56.692 56.692 0 0 0 22.235 8.583c-15 18.188-18.946 42.822-19.977 55.017-7.769-7.26-22.18-22.439-30.119-41.533zm53.925 59.117a115.861 115.861 0 0 1 -17.134-11.729c.277-7.512 2.62-40.73 22.363-60.456 2.929-.574 11.925-2.3 23.055-4.01-4.167 13.12-12.894 44.853-15.355 86.959a49.153 49.153 0 0 0 -12.929-10.767zm37.021-80.182a10.42 10.42 0 0 1 3.9-4.061c-1.717 11-1.756 24.278 3.057 37.583-.253 9.793-.108 20.284.33 31.224a31.5 31.5 0 0 0 31.557 30.276h25.455c13.617.3 25.266-12.5 23.66-26.029-.781-7.691-1.233-16.381-1.693-25.483 13.531-20.757 6.143-39.913 4.833-61h5.177a5.831 5.831 0 0 1 5.8 6.151 480.535 480.535 0 0 0 .494 58.461c.9 14.129 7.619 27.481 19.924 39.521a23.118 23.118 0 0 1 6.5 15.315 41.485 41.485 0 0 0 -12.054 8.07 19.943 19.943 0 0 0 -8.662-1.99h-19.426a20.117 20.117 0 0 0 -18.941 13.436h-18.7a11.377 11.377 0 0 1 -8.683-4.015c-6.784-8.219-16.307-6.295-25.631-6.482a11.26 11.26 0 0 0 -11.016 9h-23.572c-1.204-68.204 16.686-117.286 17.691-119.98zm-126.834 126.975h132.486c.069 2.671-.36 7.206.838 9.632h-133.324z" fill="#3c3c4f"/><path d="m170.6 84.971c2.171.153 6.129 2.171 7.435-1.882a3.5 3.5 0 0 0 -2.469-4.29 30.405 30.405 0 0 0 -4.244-.791 3.5 3.5 0 0 0 -.722 6.963z" fill="#3c3c4f"/><path d="m191.858 85.68c1.135-.119 4.075-.819 4.061-.71a3.5 3.5 0 0 0 -.726-6.962 30.4 30.4 0 0 0 -4.243.791 3.506 3.506 0 0 0 .908 6.881z" fill="#3c3c4f"/></svg>