<svg id="icon" height="512" viewBox="0 0 340 340" width="512" xmlns="http://www.w3.org/2000/svg"><path d="m66.053 141.846s-57.985 36.431-48.364 107.9l34.186 24.435s-1.7-24.456 10.407-33.928c16.848-13.186 19.893-25.088 25.618-38.345s4.676-57.588-21.847-60.062z" fill="#ffd7cd"/><path d="m68.352 141.846s-10.985 6.695-22.675 19.964c3.1 4.212 6.247 11.912 5.52 25.581 0 0-.954 7.584 2.475 17.575a9.311 9.311 0 0 1 -1.557 9.018c-5.635 6.624-15.9 21.752-16.95 45.02l18.8 13.024s-1.721-24.058 10.561-33.376c17.1-12.973 20.188-24.681 25.993-37.721s4.748-56.651-22.167-59.085z" fill="#f79089"/><path d="m305.411 27.366a34.572 34.572 0 0 1 -28.176 10.725v19.9h9.195a10.4 10.4 0 0 1 10.4 10.4v41.6a10.4 10.4 0 0 1 -10.4 10.4h-9.195v18.691c11.835 1.413 20.228 5.569 26.181 10.739 28.084-27.621 25.2-92.737 1.995-122.455z" fill="#7f91bf"/><path d="m231.928 137.583s33.43 22.767 34.006 88.473l-44.957 34.871s-30.259-53.6-19.6-108.935z" fill="#f79089"/><path d="m261.957 218.714s-19.46 5.438-30.74 21.464c-10.84 15.4-6.261 36.111 7.671 48.783 1.594 1.45 3.348 2.906 5.274 4.344a14.444 14.444 0 0 0 20.642-3.561c3.149-4.792 6.11-11.848 7.524-22.161v-48.869z" fill="#3c3c4f"/><path d="m218.224 309.588c3.556-2.113 5.9-5.323 5.6-10.159-1.108-17.467-21.05-15.387-21.05-15.387l-58.532-.077-58.532.077s-19.687 22.932-18.3 45.941h156.667a3.42 3.42 0 0 0 3.366-3.905 24.486 24.486 0 0 0 -9.219-16.49z" fill="#3c3c4f"/><path d="m210.989 211.268c16.11-10.808 14.785-31.012 10.419-46.849h-148.028c-4.366 15.837-5.691 36.041 10.419 46.849a14.419 14.419 0 0 1 -6.94 11.421c-12.614 24-29.5 77.4 70.535 76.733 98.212.651 83.727-50.805 71.23-75.389a33.854 33.854 0 0 1 -7.635-12.765z" fill="#ffd7cd"/><path d="m212.981 185.814c.525-11.585 5.313-18.25 8.424-21.394a115.927 115.927 0 0 0 -8.947-22.574h-130.128a115.927 115.927 0 0 0 -8.947 22.574c3.111 3.144 7.9 9.809 8.424 21.394a3.892 3.892 0 0 0 4.925 3.584c11.167-3.073 38.683-6.367 57.233 27.576a3.9 3.9 0 0 0 6.858 0c18.55-33.943 46.066-30.649 57.233-27.576a3.893 3.893 0 0 0 4.925-3.584z" fill="#f79089"/><path d="m20.153 241.352c15.419 3.977 38.347 14.886 41.747 44.707l-14.123 37.176s-45.377-6.335-42.93-70.599a12.217 12.217 0 0 1 15.306-11.284z" fill="#3c3c4f"/><path d="m244.945 129.722s-45.833 1.5-66.656-39.639h-61.789c-20.822 41.136-66.655 39.639-66.655 39.639a17.806 17.806 0 0 0 .27 5.645 12.1 12.1 0 0 0 11.003 9.333c23.56 1.785 27.462 21.985 28.041 30.745a3.419 3.419 0 0 0 4.041 3.144c30.952-5.914 45.539 11.638 51.2 21.672a3.432 3.432 0 0 0 5.99 0c5.66-10.034 20.247-27.586 51.2-21.672a3.419 3.419 0 0 0 4.041-3.144c.579-8.76 4.481-28.96 28.041-30.745a12.1 12.1 0 0 0 11.005-9.335 17.806 17.806 0 0 0 .268-5.643z" fill="#3c3c4f"/><path d="m116.5 114.337s8.808 15.385 30.9 15.385 30.895-15.385 30.895-15.385-4.007-24.254-30.895-24.254-30.9 24.254-30.9 24.254z" fill="#ffd7cd"/><path d="m267.772 11.425h9.112a3.541 3.541 0 0 1 3.541 3.541v214.9a0 0 0 0 1 0 0h-16.194a0 0 0 0 1 0 0v-214.901a3.541 3.541 0 0 1 3.541-3.54z" fill="#d88783"/><path d="m315.823 9.983a48.551 48.551 0 0 1 -10.423 17.372c6.365 17.244 24.753 76.306-1.986 122.47 14.364 12.478 14.519 30.861 14.519 30.861 40.698-91.044-2.11-170.703-2.11-170.703z" fill="#e4efff"/><g fill="#f79089"><path d="m109.931 213.853c-15.757 2.585-26.132-2.585-26.132-2.585a99.028 99.028 0 0 0 -6.939 11.421c16.265 4.091 27.782.125 34.793-4.229a2.512 2.512 0 0 0 -1.722-4.607z"/><path d="m210.989 211.268c-11.779 4.658-23.557 3.488-30.725 1.958a2.5 2.5 0 0 0 -2.2 4.313c5.651 5.1 17.417 10.785 40.555 6.494a101.184 101.184 0 0 0 -7.63-12.765z"/><path d="m150.151 281.451h-5.514a3.5 3.5 0 0 1 0-7h5.514a3.5 3.5 0 0 1 0 7z"/><path d="m100.563 203.764h-3.686a3.5 3.5 0 0 1 0-7h3.686a3.5 3.5 0 0 1 0 7z"/><path d="m197.911 203.764h-3.687a3.5 3.5 0 0 1 0-7h3.687a3.5 3.5 0 0 1 0 7z"/></g><path d="m264.231 270.138v59.562h16.194v-66.943q-8.097 1.251-16.194 7.381z" fill="#d88783"/><path d="m69.04 274.857a23.573 23.573 0 0 1 13.2 9.395 21.152 21.152 0 0 1 3.174 14.03c-1.323 1.745-1.424 4.81-1.4 8.014a71.571 71.571 0 0 1 -2.714 9.154c-1.768 1.828-2.7 4.461-3.348 7.377q-.4.728-.821 1.447a11.489 11.489 0 0 1 -10.7 5.709 67.643 67.643 0 0 1 -11.683-2.409 17.285 17.285 0 0 1 -12.263-19.44 87.544 87.544 0 0 1 8.285-25.512 15.468 15.468 0 0 1 18.27-7.765z" fill="#ffd7cd"/><path d="m68.224 296.8a4.026 4.026 0 0 0 2.55 5.093l13.24 4.407a80.318 80.318 0 0 0 1.4-8.014l-.009-.014-12.088-4.022a4.027 4.027 0 0 0 -5.093 2.55z" fill="#3c3c4f"/><path d="m81.3 315.45-14.3-4.779a4.029 4.029 0 0 0 -5.1 2.549 4.027 4.027 0 0 0 2.545 5.092l13.507 4.513a57.109 57.109 0 0 0 3.348-7.375z" fill="#3c3c4f"/><path d="m172.838 35.378c.982-4.823.718-11.466.237-16.748a7.922 7.922 0 0 0 -9.76-6.977c-26.25 6.4-40.016 22.364-40.016 22.364a39.14 39.14 0 0 0 -12.1 28.32v34.346s.294 10.3 5.3 17.654c0 0 8.239-17.36 30.9-17.36s30.895 17.36 30.895 17.36c5-7.356 5.3-17.654 5.3-17.654v-34.346a39.131 39.131 0 0 0 -10.756-26.959z" fill="#3c3c4f"/><path d="m138.541 77.71a3.51 3.51 0 0 1 -.912-.122 32.091 32.091 0 0 0 -4.327-.808 3.5 3.5 0 0 1 .727-6.962 38.949 38.949 0 0 1 5.421 1.011 3.5 3.5 0 0 1 -.909 6.881z" fill="#fff"/><path d="m157.837 77.709a3.5 3.5 0 0 1 -.908-6.88 39.033 39.033 0 0 1 5.421-1.012 3.5 3.5 0 0 1 .727 6.963 32.12 32.12 0 0 0 -4.328.808 3.5 3.5 0 0 1 -.912.121z" fill="#fff"/><path d="m264.231 270.138 16.194-7.381v-31.504h-16.194z" fill="#874f4f"/><path d="m256.547 199.255h-6.926a10.191 10.191 0 0 0 -10.191 10.191v13.2a10.191 10.191 0 0 0 10.191 10.192h12.831z" fill="#f79089"/><path d="m283.85 248.4h-16.382a10.922 10.922 0 0 1 -10.921-10.922v-2.2a15.734 15.734 0 0 0 0-8.056v-8.511a23.417 23.417 0 0 0 0-8.056v-11.4h27.3a10.922 10.922 0 0 1 10.922 10.921v27.3a10.922 10.922 0 0 1 -10.919 10.924z" fill="#ffd7cd"/><path d="m256.547 210.658h19.473a4.028 4.028 0 0 1 4.028 4.028 4.028 4.028 0 0 1 -4.028 4.028h-19.473a0 0 0 0 1 0 0v-8.056a0 0 0 0 1 0 0z" fill="#3c3c4f"/><path d="m256.547 227.225h19.473a4.028 4.028 0 0 1 4.028 4.028 4.028 4.028 0 0 1 -4.028 4.028h-19.473a0 0 0 0 1 0 0v-8.056a0 0 0 0 1 0 0z" fill="#3c3c4f"/><path d="m59.25 332.246c.05 0 .1-.012.145-.014a59.309 59.309 0 0 0 8.1.971l160.2.28a3.5 3.5 0 0 0 3.507-3.5 29.34 29.34 0 0 0 -7.588-20.208c7-7.049 3.375-20.748-4.321-25.374a37.764 37.764 0 0 0 6.31-7.773 46.629 46.629 0 0 0 10.933 14.922c6.693 6.657 15.1 10.72 24.2 6.245v31.905a3.5 3.5 0 0 0 3.5 3.5h16.194a3.5 3.5 0 0 0 3.5-3.5v-77.8a14.435 14.435 0 0 0 14.346-14.418v-27.3a14.435 14.435 0 0 0 -14.346-14.417v-51.9c23.088 5.223 30.214 26.149 30.508 36.856a3.51 3.51 0 0 0 6.695 1.4c29.267-62.109 17.423-136.414-2.233-173.795a3.524 3.524 0 0 0 -6.37.456c-4.727 14.134-16.156 24.565-28.61 25.731v-23.088a3.5 3.5 0 0 0 -3.5-3.5h-16.189a3.5 3.5 0 0 0 -3.5 3.5v162.78a99 99 0 0 0 -17.177-30.234 15.176 15.176 0 0 0 4.54-7.855c.522-3.12 1.691-9.864-3.259-9.892-.312.115-36.991.488-57.808-28.414.048-.711.055-.888.059-1.127v-34.345a42.5 42.5 0 0 0 -10.512-28.054 71.88 71.88 0 0 0 -.014-15.972 11.422 11.422 0 0 0 -14.074-10.06c-26.041 6.348-40.186 21.621-41.718 23.348a42.876 42.876 0 0 0 -13.068 30.738v34.345c0 .266.012.409.061 1.143-20.718 28.8-57.547 28.564-57.806 28.4a3.5 3.5 0 0 0 -3.6 3.142c-1.1 7.943 3.154 15.811 10.968 18.144-17.512 14.089-45.9 44.218-44.14 90.452a15.669 15.669 0 0 0 -11.833 14.536c-1.735 47.4 24.633 77.311 57.9 79.746zm-3.56-72.419c.94-6.21 3.483-14.157 10.119-18.917-2.522 9.573-3.265 20.121.487 29.869a18.781 18.781 0 0 0 -4.537.113 49.846 49.846 0 0 0 -6.069-11.065zm8.855 17.857a11.884 11.884 0 0 1 3.472.52c9.3 2.716 15.091 10.361 13.892 19.9-.665 5.307-2.561 15.534-7.791 24.39-3.69 6.336-13.228 2.775-18.406 1.716a13.783 13.783 0 0 1 -9.776-15.51 84.585 84.585 0 0 1 7.945-24.481 12.008 12.008 0 0 1 10.664-6.535zm155.783 21.966a6.813 6.813 0 0 1 -3.588 6.729 77.028 77.028 0 0 1 -13.334 2.63 3.5 3.5 0 0 0 .31 6.986 78.482 78.482 0 0 0 13.721-2.53 21.61 21.61 0 0 1 6.528 13.011l-143.928-.251a58.492 58.492 0 0 0 4.8-10.3 55.208 55.208 0 0 0 12.792 2.6 3.5 3.5 0 0 0 .371-6.982 48.346 48.346 0 0 1 -11.1-2.319c1.493-6.557 2.42-10.195 2.031-15.866 26.858 13.722 101.291 13.373 124.416-4.225 4.353 1.921 6.653 5.357 6.981 10.517zm25.928-9.15c-7.973-5.648-14.359-13.977-16.61-23.311a46.135 46.135 0 0 0 .922-18.349c2.247-5.977 6.276-10.715 11.17-15.016 3.032 2.392 7.466 2.7 11.309 2.516a14.63 14.63 0 0 0 7.684 13.881v39.043a10.979 10.979 0 0 1 -14.475 1.236zm6.791-61.16h-3.426a6.7 6.7 0 0 1 -6.691-6.692v-13.2a6.7 6.7 0 0 1 6.691-6.692h3.426zm14.684 96.86v-74.3h9.194v74.3zm23.54-116.028v27.3a7.43 7.43 0 0 1 -7.421 7.422h-16.382a7.43 7.43 0 0 1 -7.421-7.422v-34.717h23.8a7.429 7.429 0 0 1 7.424 7.421zm-7.346-148.683h2.5a6.908 6.908 0 0 1 6.9 6.9v41.6a6.908 6.908 0 0 1 -6.9 6.9h-2.5zm32-43.013c16.931 42.707 24.4 90.735 3.323 149.846a46.234 46.234 0 0 0 -11.432-19.187c24.58-45.4 8.455-101.647 1.6-120.98a49.3 49.3 0 0 0 6.504-9.679zm-12.081 15.009c6.905 20.605 19.635 70.483-1.53 111.063a50.081 50.081 0 0 0 -18.389-7.867v-12.789c8.575.917 16.389-5.009 16.4-13.9v-41.6c-.014-8.882-7.833-14.824-16.4-13.9v-12.934a38.506 38.506 0 0 0 19.919-8.073zm-26.919-18.56v180.83h-9.194v-180.83zm-162.225 47.413c-.138-18.927 16.231-38.026 49.442-47.286a4.442 4.442 0 0 1 5.445 3.9c.612 6.707.549 12.147-.18 15.732a3.5 3.5 0 0 0 .889 3.106 35.539 35.539 0 0 1 9.788 24.552v34.28a38.5 38.5 0 0 1 -2.2 10.808c-14.215-18.586-46.82-18.541-60.988-.005a39.1 39.1 0 0 1 -2.2-10.806zm59.457 51.83c-11.866 16.039-41.708 15.988-53.522.01 11.395-18.234 42.248-18.203 53.524-.01zm-120.625 20.451a12.461 12.461 0 0 1 -.227-1.456c9.679-.46 36.689-3.815 56.091-26.206 8.856 34.8 67.235 34.674 76 0 19.4 22.392 46.414 25.745 56.091 26.206a8.657 8.657 0 0 1 -8.077 8.048c-23.13 2.182-29.856 18.472-31.264 33.922-32.777-6.219-48.544 12.6-54.748 23.444-6.2-10.849-21.971-29.664-54.748-23.444-1.407-15.448-8.134-31.741-31.264-33.923a8.643 8.643 0 0 1 -7.854-6.591zm13.157 14.552c20.236 5.363 19.105 28.985 19.04 30.068a3.5 3.5 0 0 0 4.328 3.621c42.008-10.307 53.536 23.514 54 24.951a3.514 3.514 0 0 0 6.665.008c.47-1.445 12-35.267 54.006-24.959a3.5 3.5 0 0 0 4.328-3.614c-.293-4.691-.087-30.258 28.321-31.713 6.586 7.509 17.041 22.814 22.087 48.222h-9.846a13.707 13.707 0 0 0 -13.691 13.692c.265 4.159-.887 15.341 1.312 19.011a52.711 52.711 0 0 0 -9 9.875 105.951 105.951 0 0 0 -12.473-26.28c8.952-7.479 13.018-19.014 11.788-33.6a3.5 3.5 0 0 0 -6.976.589c1.13 13.4-2.661 23.182-11.252 29.11-17.1 6.571-34.475-.048-34.71-.14-4.3-1.612-6.822 4.747-2.57 6.512 5.924 2.738 25.065 5.761 37.574.957 30.862 48.549 13.376 81.757-62.254 80.442-27.88.21-47.681-3.82-61.211-11.912a24.908 24.908 0 0 0 -10.477-10.177c-13.363-20.361 4.023-50.011 9.433-58.279 9.189 3.41 24.1 3.513 36.034-.983a3.5 3.5 0 1 0 -2.315-6.606c-18.157 6.361-31.459 1.055-33.273.261-8.657-5.916-12.479-15.717-11.357-29.147a3.5 3.5 0 0 0 -6.976-.584c-1.219 14.565 2.849 26.085 11.791 33.557a111.824 111.824 0 0 0 -9.115 17.033c-10.318 7.731-16.547 11.43-19.957 24.152-9.099-8.638-20.055-13.138-29.73-15.438-1.857-47.965 31.168-77.561 46.476-88.629zm-58.344 103.598c.071-5.4 5.766-9.513 10.934-8.028 12.56 3.24 28.729 10.811 35.861 28.464-10.553 5.738-14.628 26.857-16.11 34.358a20.749 20.749 0 0 0 1.845 12.527c-20.005-11.314-33.335-30.913-32.53-67.321z" fill="#3c3c4f"/></svg>