<svg id="icon" height="512" viewBox="0 0 340 340" width="512" xmlns="http://www.w3.org/2000/svg"><path d="m214.014 131.459c16.136-1.251 37.727-7.145 54.656-27.019l8.285 16.56c-17.662 40.228-47.1 50.167-86.065 35.626z" fill="#ffd29a"/><path d="m282.293 82.71a92.317 92.317 0 0 1 -13.633 21.721c.589 8.278.034 28.947-17.75 42.855a46.626 46.626 0 0 1 -30.61 9.714 61.011 61.011 0 0 1 -20.969-4.518c7.756-5.509 12.254-14.417 14.683-21.018a85.478 85.478 0 0 1 -23.123-1.143c-10.9 31.854 12.33 42.592 12.33 42.592a111.274 111.274 0 0 0 30.267-2.3l.015.005c44.808-10.047 56.783-47.224 56.783-47.224v-40.684z" fill="#e88e5a"/><path d="m71.084 235.943c-4.376 13.647-9.074 30.913-11.268 47.59a27.653 27.653 0 0 0 12.8 27.086c8.145 5.1 24.259 10.538 41.256 13.441l4.035-31.242s-10.887-1.47-19.15-6.078c-3.81-2.124-5.166-7.02-4.441-11.321.541-3.206 1.37-7.374 2.612-12.056l5.611-40.224z" fill="#ffd29a"/><path d="m80.608 209.617s-4.555 10.83-9.524 26.326c7.212.139 18.939-.523 26.6-5.5 0 0-.944 17.284-12.6 29.973a2.04 2.04 0 0 0 1.4 3.433 58.488 58.488 0 0 0 10.455-.481c2.552-9.626 6.838-21.42 13.942-31.522-5.164-13.946-15.881-20.527-30.273-22.229z" fill="#e88e5a"/><path d="m138.666 271.788c.831 9.471 1.486 20.955 1.486 33.627h88.254a255.76 255.76 0 0 0 -9.445-81.315l-46.2-11.965z" fill="#ffd29a"/><path d="m158.9 328.674h69.51v-23.259h-68.098c-3.712 5.793-3.612 13.885-1.412 23.259z" fill="#6d68b7"/><path d="m197.574 176.789c-26.728 19.033-52.328 41.406-62.327 68.167 0 0 4.9 34.613 4.9 60.459h20.16c-.436-13.93-1.116-26.577-1.718-36.1a17.645 17.645 0 0 1 4.933-13.455 55.747 55.747 0 0 0 14.947-28.393s20.287 4.5 40.483-3.362c-4.643-15.92-11.445-32.318-21.378-47.316z" fill="#e88e5a"/><path d="m95.439 160.426a43.247 43.247 0 0 0 -7.466 5.519 36.819 36.819 0 0 0 -11.137 21.492c-1.3 8.236-5.448 21.457-18.625 28.051a2.03 2.03 0 0 0 -.2 3.5c4.921 3.224 16.663 8.26 37.146 2.451a66.732 66.732 0 0 1 -10.686 30.575 2.042 2.042 0 0 0 1.546 3.193c7.754.47 26.548-.735 38.7-21.1a49.939 49.939 0 0 1 2.482 28.963 2.035 2.035 0 0 0 2.79 2.31c10.068-4.343 36.845-19.2 39.07-55.041 0 0 32.585 18.879 62.745-6.571a2.041 2.041 0 0 0 -.463-3.408 48.5 48.5 0 0 1 -23.008-22.2s15.445-6.512 22.779-25.267a2.033 2.033 0 0 0 -2.037-2.752c-6.391.414-21.5.433-34.889-6.825 0 0 11.65-12.2 11.761-28.654a2.046 2.046 0 0 0 -2.969-1.853 62.62 62.62 0 0 1 -31.174 6.436 39.058 39.058 0 0 0 -18.2 3.663c-10.247 24.664-28.134 39.162-58.165 37.518z" fill="#6d68b7"/><path d="m132.645 154.928s-19.757-4.7-37.206 5.5c3.886 3.712 19.8 16.674 41.535 3.936 18.739-10.984 18.136-31.666 16.626-41.45-12.874 5.923-22.63 18.255-20.955 32.014z" fill="#4d5284"/><path d="m118.6 169.826c7.446 11.021 20.463 23.559 42.045 26.643 0 0 .726-24.454-11.008-45a73.019 73.019 0 0 0 -31.037 18.357z" fill="#e88e5a"/><path d="m80.546 123.51-5.933 6.149a13.4 13.4 0 0 0 -.79 17.958 13.4 13.4 0 0 0 16.75 3.219l7.828-4.277z" fill="#f79089"/><path d="m120.747 95.779 7.994-3.019a13.4 13.4 0 0 1 16.808 6.372 13.4 13.4 0 0 1 -3.664 16.658l-7.022 5.5z" fill="#f79089"/><path d="m136.961 136.08-27.119 15.658a66.7 66.7 0 0 0 8.757 18.088 36.613 36.613 0 0 0 18.375-5.463 33.188 33.188 0 0 0 12.658-12.9 56.06 56.06 0 0 0 -12.671-15.383z" fill="#e88e5a"/><path d="m83.232 134.638a165.241 165.241 0 0 0 15.882 17.908 25.4 25.4 0 0 0 32.561 2.18 25.341 25.341 0 0 0 9.318-27.88 103.581 103.581 0 0 0 -10.955-24.595c-17.859 6.038-33.506 16.737-46.806 32.387z" fill="#ffd7cd"/><path d="m317.394 196.666c-2.146-4.407-4.169-8.876-5.9-13.461-7.065-18.692-12.237-35.722-13.625-46.3-.649-4.943.989-11.343.989-16.329v-71.941l3.837-28.586a7.651 7.651 0 0 0 -7.584-8.669h-14.4a7.651 7.651 0 0 0 -7.582 8.676l3.827 28.31v72.206c0 4.986.649 13.921 0 18.865-1.388 10.581-5.571 25.076-12.636 43.768-1.733 4.585-3.756 9.054-5.9 13.461-4.521 9.285-18.09 40.908-11.848 74.807 2.657 14.428 9.687 23.255 17.212 28.655a41.56 41.56 0 0 0 48.248 0c7.524-5.4 14.555-14.227 17.211-28.655 6.241-33.899-7.328-65.522-11.849-74.807z" fill="#d88783"/><path d="m277.463 84.788h21.393v124.829h-21.393z" fill="#874f4f"/><circle cx="287.906" cy="227.848" fill="#3c3c4f" r="23.768"/><circle cx="106.283" cy="132.841" fill="#3c3c4f" r="3.559"/><circle cx="120.747" cy="123.901" fill="#3c3c4f" r="3.559"/><path d="m83.233 134.638 46.8-32.382a67.434 67.434 0 0 0 -6.963-9.269l-47.329 31.258s2.848 4.386 7.492 10.393z" fill="#f79089"/><path d="m117.065 99.422 7.822-5.394a5.81 5.81 0 0 0 2.285-6.451 52.2 52.2 0 0 1 -1.767-8.129 14.658 14.658 0 0 1 24.13-13.087 47.7 47.7 0 0 1 8.373 9.438l6.217-3.865s-2.289-17.045-12.2-29.2c-16.156-19.815-48.467-9.192-50.452 16.3-.812 10.397 2.649 23.846 15.592 40.388z" fill="#3c3c4f"/><path d="m90.821 117.52-14.56 10.041a9.583 9.583 0 0 1 -10.036.464c-6.651-3.616-18.921-7.283-27.995 7.441-8.055 13.071-5.465 31.794-5.465 31.794l-7.757 1.946s-14.286-32.524-1.368-55.776c0 0 17.478-34.2 56.384-14.134z" fill="#3c3c4f"/><path d="m79.359 107.868c-6.8-6.4-14.966-15.4-19.541-25.167-8.824-18.84-12.163-28.857-33.15-9.3l-7.868-7.394s4.17-34.951 42.687-31.719c16.867 1.412 30.644 17.363 40.263 33.121 10.918 21.077.056 38.854-22.391 40.459z" fill="#6d68b7"/><g fill="#ffd29a"><circle cx="18.798" cy="73.156" r="9.555"/><circle cx="163.211" cy="78.98" r="9.555"/><circle cx="29.741" cy="173.917" r="9.555"/></g><path d="m79.361 107.866a127.627 127.627 0 0 0 11.46 9.654l26.244-18.1a185.154 185.154 0 0 0 -15.317-32.01c.052.14 10.901 28.614-22.387 40.456z" fill="#4d5284"/><rect fill="#874f4f" height="13.266" rx="4.939" width="36.583" x="269.614" y="267.839"/><path d="m267.717 48.243h-8.617a7.074 7.074 0 0 0 -6.916 7.223v16.61a7.074 7.074 0 0 0 6.916 7.224h9.059z" fill="#f79089"/><path d="m296.47 90.851h-17.129a10.927 10.927 0 0 1 -10.927-10.927v-.624a9.865 9.865 0 0 0 0-7v-7.12a9.86 9.86 0 0 0 0-7v-9.937h28.056a10.928 10.928 0 0 1 10.93 10.928v20.753a10.928 10.928 0 0 1 -10.93 10.927z" fill="#ffd7cd"/><path d="m140.152 324.691a3.984 3.984 0 0 0 3.984 3.983h14.764a17.068 17.068 0 0 0 1.756-7.025l-.34-16.234h-20.16z" fill="#4d5284"/><path d="m117.911 292.818 20.031 2.43a12.253 12.253 0 0 1 10.6 10.085l2.12 12.31a8.9 8.9 0 0 1 -9.686 11.031s-15.961-1.7-27.1-4.614c0 0-4.034-16.292 4.035-31.242z" fill="#ffd7cd"/><path d="m255.271 195.011c-54.14 122.926 61.849 148.619 77.413 76.972 6.42-45.93-9.238-67.777-17.917-90.139-13.01-36.21-12.766-55.916-12.411-88.761a14.439 14.439 0 0 0 8.544-13.159v-20.753a14.432 14.432 0 0 0 -8.2-12.993l.863-6.431h3.606a3.5 3.5 0 0 0 0-7h-2.669l.671-5h4.457a3.5 3.5 0 0 0 0-7h-3.518a11.232 11.232 0 0 0 -11-12.995h-14.4a11.231 11.231 0 0 0 -11 13h-3.018a3.5 3.5 0 0 0 0 7h3.964l.676 5h-2.18a3.5 3.5 0 0 0 0 7h3.126l.675 5h-14.11a10.427 10.427 0 0 0 -10.415 10.416v15.9a10.427 10.427 0 0 0 10.415 10.415h6.157a14.444 14.444 0 0 0 7.873 11.317c-19 29.992-47.846 35.378-65.843 35.435 1.314-3.111 6.332-24.22-3.165-19.936-22.908 13.96-38.206.181-59.915 16.294q-.765-2.412-1.6-4.723c15.658-10.377 7.008-33.887-11.462-31.31-.489-3.2-1.737-6.4-2.014-9.574a11 11 0 0 1 5.663-11.333c6.386-3.357 11.973-.475 16.968 5.582-4.348 8.386 2.224 18.969 11.705 18.8 15.3-.389 17.927-21.408 3.388-25.648-1.535-6.536-4.938-17.252-11.964-25.869-16.945-21.4-52.4-11.153-56.311 15.449-26.712-39.573-72.667-29.277-81.835 4.351-15.488 3.204-13.618 25.426 2.312 25.892a13.062 13.062 0 0 0 13.038-12.755c6.078-5.268 10.541-7.656 13.27-7.095 5 .6 10.242 16.588 14.438 23.231-25.554-1.636-38.046 20.449-38.969 22.145-10.488 18.888-4.37 42.991-.731 53.69-7.255 8.224-1.172 21.639 9.9 21.546 13.617-.165 17.957-18.118 6.171-24.553-1.224-14.46 6.668-43.278 28.642-31.319a13.383 13.383 0 0 0 4.011 1.412c-6.337 16.139 11.33 29.888 25.779 20.249.939.938 1.873 1.9 2.863 2.786-34.959 16.94-13.479 45.145-43.225 57.983a3.5 3.5 0 0 0 -2.149 2.47c-1.179 3.144 5.945 8.934 18.505 11.085-5.176 15.051-11.354 35.9-14 56-2.778 31.285 28.065 38.574 56.791 44.406a219.875 219.875 0 0 0 25.9 4.494 15.149 15.149 0 0 0 4.457.2h84.909a3.5 3.5 0 0 0 3.5-3.5v-23.142c.227-3.2 2.888-45.58-11.979-90.076a62.851 62.851 0 0 0 16.751-11.346 3.5 3.5 0 0 0 -1.323-5.9 44.79 44.79 0 0 1 -22.249-18.621 47.575 47.575 0 0 0 4.782-3.274c19.717-1.271 36.584-7.315 50.3-17.982a170.479 170.479 0 0 1 -12.911 36.667zm25.184-100.66h3.951v106.461a27.178 27.178 0 0 0 -3.951.811zm3.951 153.441a20.074 20.074 0 0 1 -3.951-1.113v-37.662a20.143 20.143 0 0 1 3.951-1.113zm7-39.888a20.114 20.114 0 0 1 3.95 1.113v37.662a20.114 20.114 0 0 1 -3.95 1.113zm-17.951 34.131c-7.69-7.479-7.688-20.9 0-28.374zm10.951 12.849v9.455h-3.951v-10.266a27.178 27.178 0 0 0 3.951.811zm-9.853 16.455h26.7a1.44 1.44 0 0 1 1.439 1.439v3.387a1.44 1.44 0 0 1 -1.439 1.439h-26.7a1.441 1.441 0 0 1 -1.439-1.439v-3.387a1.441 1.441 0 0 1 1.439-1.439zm20.8-7h-3.95v-9.455a27.138 27.138 0 0 0 3.95-.811zm7-50.677c7.69 7.478 7.688 20.9 0 28.372zm-10.95-12.85v-106.461h3.95v107.272a27.138 27.138 0 0 0 -3.947-.811zm-14.803-181.348a4.169 4.169 0 0 1 4.115-4.707h14.4a4.151 4.151 0 0 1 4.115 4.7l-3.393 25.283h-15.824zm-21.168 51.6v-15.9a3.419 3.419 0 0 1 3.415-3.416h6.071v22.73h-6.071a3.419 3.419 0 0 1 -3.419-3.415zm16.482 8.236h15.992a3.5 3.5 0 0 0 0-7h-15.992v-7.12h15.992a3.5 3.5 0 0 0 0-7h-15.992v-6.437h24.556a7.437 7.437 0 0 1 7.428 7.428v20.753a7.437 7.437 0 0 1 -7.428 7.427h-17.129a7.49 7.49 0 0 1 -7.427-8.051zm-170.379 70.72a171.267 171.267 0 0 1 -19.189-22.4l41.279-28.467c5.709 7.5 10.535 17.367 14.023 28.724 6.363 21.5-19.767 37.576-36.113 22.142zm32.2 7.533a28.875 28.875 0 0 0 8.826-10.472c11.788 15.676 14.069 36.5 14.492 45.2-20.939-4.446-32.578-18.634-38.526-29.228a28.807 28.807 0 0 0 15.212-5.501zm8.695-56.825a9.918 9.918 0 0 1 -2.772 12.359 88.274 88.274 0 0 0 -9.63-17.072 9.868 9.868 0 0 1 12.406 4.712zm26.836-21.748c-.255 8-11.856 8-12.11 0 .255-8.001 11.856-7.999 12.11 0zm-64.166-12.932c-3.963-33.061 43.479-46.958 54.31.445a12.989 12.989 0 0 0 -3.213 1.494c-6.312-7.718-15.875-11.456-25.017-6.475a17.853 17.853 0 0 0 -9.247 18.4 55.447 55.447 0 0 0 1.886 8.68 2.3 2.3 0 0 1 -.921 2.557l-4.124 2.845a187.763 187.763 0 0 0 -13.674-27.872c0-.022 0-.049 0-.074zm-86.3 13.162c-8-.254-8-11.856 0-12.109 8 .255 8 11.856 0 12.109zm27.715-19.71c-4.678-.964-9.833 1.033-16.761 6.579a13.113 13.113 0 0 0 -6.169-5.06c3.051-9.473 12.015-25.392 37.615-23.243 27.729 2.327 47.279 48.946 51.642 60.31l-21.921 15.114c-5.48-4.291-21.084-17.357-27.934-31.982-4.603-9.973-9.082-20.604-16.472-21.718zm-16.774 120.472c-8-.255-8-11.856 0-12.109 8.001.254 7.999 11.856 0 12.109zm5.51-46.342c-5.487 8.9-6.468 19.9-6.377 27.277a12.963 12.963 0 0 0 -2.972.534c-3.338-10.435-7.856-30.866.851-46.411.5-.959 12.374-23.248 38.215-17.616a128.794 128.794 0 0 0 19.923 19.944l-10.617 7.322a6.071 6.071 0 0 1 -6.377.27c-12.997-7.065-24.897-3.9-32.646 8.68zm53.649 14.134c-10 5.224-19.586-7.27-11.867-15.561a194.917 194.917 0 0 0 12.35 15.297zm-25.614 136.226c2.674-20.327 9.1-41.547 14.284-56.387a63.807 63.807 0 0 0 13.456-1.523 63.407 63.407 0 0 1 -11.333 26.611 3.525 3.525 0 0 0 2.084 5.54 43.048 43.048 0 0 0 12.958.049c-7.032 24.124-6.864 31.4 18.09 37.152a51.644 51.644 0 0 0 -3.176 24.274c-23.349-5.769-48.249-10.33-46.363-35.716zm60.423-14.684c2.613 2.282 4.983.357 10.974-2.244.819 8.077 1.385 16.27 1.689 24.47l-18.008-2.184c-.374-.053-10.44-1.5-17.9-5.664-2.505-1.4-3.152-4.962-2.693-7.684a129.493 129.493 0 0 1 4.883-19.522 43.6 43.6 0 0 0 20.873-14.521 45.856 45.856 0 0 1 -.676 23.835 3.5 3.5 0 0 0 .858 3.514zm23.5 48.931a5.524 5.524 0 0 1 -4.179 6.937c-4.06-.02-14.3-1.4-26.129-3.97-.646-4.268-1.511-14.629 3.038-24.614l17.577 2.133a8.7 8.7 0 0 1 7.573 7.2zm77.693 6.937h-71.702c2.526-4.418.148-11.53-.485-16.259h72.195zm.166-23.259h-73.841a15.591 15.591 0 0 0 -7.783-8.637c-.32-10.047-1.029-20.109-2.11-29.969 14.739-10.042 26.649-22.057 30.727-47.668 11.243 4.735 26.777 7.036 41.324 2.34 12.247 36.888 12.07 73.119 11.687 83.934zm-19.876-122.205a51.681 51.681 0 0 0 22.59 22.819c-27.306 21.368-55.723 5.5-56.972 4.785a3.5 3.5 0 0 0 -5.247 2.811c-1.955 31.479-23.624 45.737-34.414 50.921a53.153 53.153 0 0 0 -3.253-28.394 3.5 3.5 0 0 0 -6.187-.335c-10.091 16.908-24.957 19.478-32.959 19.5a69.744 69.744 0 0 0 9.9-30.209 3.5 3.5 0 0 0 -4.451-3.534c-16.679 4.729-26.9 1.921-32.1-.722 28.066-18.057 7.329-43.852 42.03-57.117a28.809 28.809 0 0 0 6.171 2.165c5.993 12.565 20.945 33.805 50.344 37.569a3.523 3.523 0 0 0 3.5-3.4c.042-1.439.789-35.059-18.979-57.361a28.718 28.718 0 0 0 .373-6.864c7.108-6.412 17.006-10.08 26.083-9.609a66.381 66.381 0 0 0 30.716-5.732c-1.12 13.628-10.58 23.782-10.684 23.892a3.522 3.522 0 0 0 .864 5.493c12.756 6.916 26.78 7.62 34.431 7.364a43.634 43.634 0 0 1 -19.976 21.178 3.523 3.523 0 0 0 -1.78 4.78zm20.831-11.279a52.505 52.505 0 0 0 9.5-17.517 3.524 3.524 0 0 0 -3.836-4.531c-.177.026-16.638 2.3-32-4.288a54.817 54.817 0 0 0 4.317-6.9c20.017.269 47.48-3.761 69.448-31.089.151 14.361.241 28.458-2.854 42.831-11.777 11.652-26.746 18.85-44.575 21.494zm41.57 15.888c2.345-6.2 4.269-12.362 5.862-18.267v38.688c-17 10.455-16.992 35.768 0 46.216v13.463a8.445 8.445 0 0 0 -7.341 8.359v3.387a8.449 8.449 0 0 0 8.439 8.439h26.7a8.449 8.449 0 0 0 8.439-8.439v-3.387a8.446 8.446 0 0 0 -7.341-8.359v-13.463c17-10.455 16.992-35.768 0-46.216v-38.687a169.478 169.478 0 0 0 11.891 32.022c7.3 11.857 27.521 77.366-4.259 99.087a37.852 37.852 0 0 1 -44.166 0c-31.782-21.735-11.554-87.242-4.257-99.087 2.532-5.192 4.448-9.563 6.033-13.756z" fill="#3c3c4f"/></svg>