<svg id="Layer_1" enable-background="new 0 0 242.297 262.582" height="512" viewBox="0 0 242.297 262.582" width="512" xmlns="http://www.w3.org/2000/svg"><g><path d="m82.863 200.771c5.198.584 10.905 2.569 16.448 4.527v-36.231l36.305.063 4.275 14.252 5.65 18.839c.617 2.059 1.72 3.838 3.142 5.256.572.569 1.198 1.075 1.863 1.521 2.034 1.365 4.451 2.138 6.963 2.138 1.189 0 2.396-.171 3.593-.529 3.518-1.057 6.215-3.53 7.682-6.604.288-.602.532-1.224.721-1.867.658-2.241.704-4.69-.017-7.095l-3.497-11.659-9.095-30.325c-.691-2.307-2.009-4.297-3.732-5.808-.252 1.913-.546 3.858-.884 5.837-.825 4.818-4.968 8.316-9.849 8.316-.544 0-1.111-.05-1.681-.143-2.649-.455-4.949-1.902-6.493-4.084-1.54-2.179-2.142-4.831-1.69-7.468.326-1.906.6-3.764.832-5.581l-4.59-.009v-38.382c3.015 3.343 6.506 9.335 7.288 21.163.098 1.488.161 3.054.167 4.733 0 3.687-.263 7.845-.849 12.497-.238 1.893-.525 3.857-.878 5.919-.747 4.355 2.181 8.489 6.536 9.236.456.077.91.115 1.357.115 3.827 0 7.21-2.752 7.879-6.651.403-2.361.732-4.631 1.006-6.834.643-5.168.947-9.92.947-14.282.006-1.635-.047-3.2-.126-4.733-.854-16.465-6.458-27.19-12.895-33.386-6.996-6.784-14.036-7.957-15.059-8.109-.416-.06-.828-.075-1.235-.07-.599-.148-1.221-.236-1.865-.236h-27.816l-5.395 5.19-13.151 12.649-1.906 1.833-19.814 32.895c4.08-1.414 7.669-3.77 10.799-6.387 4.198-3.555 7.809-7.778 10.919-12.039v21.299c-.081.571-.137 1.149-.137 1.742v58.671c1.744-.223 3.439-.35 5.028-.35 1.14 0 2.233.056 3.254.171z"/><path d="m75.67 253.542h-.022-.111c-.159 0-.329-.016-.496-.028 1.444 5.226 6.222 9.068 11.905 9.068 6.828 0 12.365-5.535 12.365-12.363v-3.271c-.283.104-.56.204-.845.308-8.309 3.027-16.903 6.16-22.796 6.286z"/><path d="m202.008 246.312s-23.213-.315-18.529-9.173c4.691-8.861 31.629 4.865 31.629 4.865s9.181.757 13.313 1.885c4.129 1.134 11.605.162 5.89-7.439-5.715-7.598-24.708-23.936-24.708-23.936l1.436-4.637s8.708 4.941 13.541 7.186c4.834 2.24 11.122-4.438 11.122-4.438s-6.043 3.151-9.013 1.35c-2.974-1.805-5.614-3.341-3.009-4.516 2.61-1.172 3.357-4.248 3.455-5.797-1.951 2.084-8.011 3.378-8.011 3.378l-4.578-2.091.771-2.971 4.77-5.881 8.577-4.779-12.044 1.984-5.947 4.134s-1.226-1.948.238-7.771c1.471-5.821 8.379-10.402 8.379-10.402s-8.682.41-13.189 8.689c-4.505 8.275.862 19.282.862 19.282l-1.583 4.028-7.258-1.65 2.555 13.938s-17.211-12.666-29.968-16.962c-1.671 3.692-4.855 6.679-9.031 7.934-1.358.406-2.76.61-4.167.61-3.473 0-6.748-1.277-9.306-3.425-10.219 2.842-23.735 3.36-33.44 2.09-4.794-.628-10.111-2.492-15.453-4.38-5.733-2.026-11.496-4.08-16.672-4.662-2.387-.269-5.148-.186-8.057.199-9.276 1.226-20.084 5.609-25.318 12.176-4.8 6.022 24.75-4 24.75-4s-1.863 8.7-5.33 15.547c-3.468 6.846-18.37-5.941-23.615-6.373-5.246-.432-12.74 3.975-12.74 3.975s-7.645 16.009-12.405 19.314c-4.758 3.308-11.421 4.081-11.421 4.081l-3.573 8.161 19.092-4.247s11.368-13.063 15.119-16.98c3.605-3.766 26.887 15.485 35.503 16.848.349.055.683.091.981.085 5.913-.128 15.074-3.592 23.685-6.723 2.564-.932 5.081-1.836 7.447-2.611 10.309-3.381 27.916 7.306 35.373 9.762 7.456 2.457 38.123 5.234 44.178 5.465 0 0 18.668-3.832 27.436-2.413l13.547-.235 7.482 6.617 7.524-2.228s-10.672-10.553-16.579-10.779c-5.91-.225-17.801-1.857-23.711-2.084zm9.422-24.623c1.533 0 2.777 1.243 2.777 2.775 0 1.533-1.244 2.776-2.777 2.776-1.532 0-2.775-1.243-2.775-2.776 0-1.531 1.243-2.775 2.775-2.775z"/><path d="m24.948 115.872c-3.457 2.753-4.03 7.786-1.276 11.242.476.597.96 1.166 1.448 1.722l10.375-12.443c-2.845-2.763-7.363-3.056-10.547-.521z"/><path d="m131.178 37.006-2.798-2.91 27.778-26.719-6.318-6.568-3.941 3.789-4.423-4.598-3.703 1.784 5.31 5.521-20.123 19.355c2.534 4.264 4.187 9.07 4.662 13.766z"/><path d="m86.848 88.496 3.534-3.398 5.19-4.992c-6.891-1.762-12.405-6.26-15.636-12.061l-22.444 21.586-2.979-3.098s-3.283 4.852-7.421 2.803c.442 5.719 5.546 9.616 5.546 9.616l-15.812 18.967-10.336 12.399-26.49 31.776 25.446 17.439 24.74-41.074 21.048-34.945 3.485-3.351z"/><path d="m101.746 30.899c1.905 0 3.819.22 5.689.655 1.943.452 3.777 1.128 5.49 1.983.628.313 1.239.651 1.833 1.013 3.849 2.347 6.946 5.675 9.03 9.563.331.618.64 1.248.918 1.892.03.069.057.14.086.209.153-.225.294-.452.413-.689.364-.725.561-1.503.561-2.334 0-.317-.012-.637-.024-.956-.187-4.747-1.744-9.727-4.288-14.125-.342-.591-.699-1.173-1.076-1.74-4.401-6.636-11.102-11.552-18.611-11.552-13.255 0-24 15.313-24 28.373 0 1.093.343 2.093.959 3.002 3.836-9.179 12.784-15.294 23.02-15.294z"/><path d="m96.665 77.807c.356.083.712.155 1.068.221.854.156 1.707.259 2.556.315 10.804.726 20.851-6.454 23.386-17.343.864-3.711.751-7.42-.164-10.861-.179-.673-.389-1.334-.628-1.983-.036-.098-.068-.197-.105-.295-.255-.664-.54-1.315-.856-1.951-1.966-3.961-5.087-7.321-9.03-9.563-.611-.348-1.24-.669-1.889-.96-1.307-.587-2.687-1.061-4.134-1.397-11.191-2.606-22.372 3.64-26.218 14.166-.236.646-.444 1.309-.624 1.986-.058.218-.119.435-.17.655-1.093 4.692-.624 9.381 1.058 13.53.266.655.562 1.297.887 1.924 2.923 5.633 8.196 10.004 14.863 11.556z"/></g></svg>