<svg height="512" viewBox="0 0 512 512" width="512" xmlns="http://www.w3.org/2000/svg"><g id="Layer_2"><g><path d="m449.354 504.476h-386.708v-42.204c0-28.548 20.215-53.099 48.233-58.579l145.121-28.38 145.122 28.38c28.017 5.479 48.233 30.031 48.233 58.579v42.204z" fill="#3282a1"/><path d="m134.187 403.694 133.468-26.101-11.655-2.28-145.122 28.38c-28.017 5.479-48.232 30.031-48.232 58.579v42.204h23.309v-42.204c-.001-28.548 20.214-53.099 48.232-58.578z" fill="#1b6e87"/><path d="m170.92 415.931 41.072 88.545h88.016l41.072-88.545z" fill="#fff"/><path d="m231.369 395.399h51.523v36.777h-51.523z" fill="#ffb09e"/><path d="m256 451.332-85.08-35.376v-59.964l58.674 41.05c16.101 7.457 26.406 23.585 26.406 41.329z" fill="#e15f4f"/><path d="m256 451.332 85.08-35.376v-59.964l-58.674 41.05c-16.101 7.457-26.406 23.585-26.406 41.329z" fill="#e15f4f"/><path d="m144.438 290.506h-11.231c-15.83 0-28.663-12.833-28.663-28.663 0-15.83 12.833-28.663 28.663-28.663h11.231z" fill="#ffb09e"/><path d="m367.562 290.506h11.231c15.83 0 28.663-12.833 28.663-28.663 0-15.83-12.833-28.663-28.663-28.663h-11.231z" fill="#ffb09e"/><path d="m313.156 170.082h-114.31c-13.794 0-54.407 56.188-54.407 56.188v57.567c0 61.614 49.948 111.562 111.562 111.562 61.614 0 111.562-49.948 111.562-111.562v-57.567c-.035.006-40.613-56.188-54.407-56.188z" fill="#ffcebf"/><path d="m167.747 283.838v-57.568s40.614-56.188 54.407-56.188h-23.309c-13.794 0-54.407 56.188-54.407 56.188v57.567c0 61.614 49.948 111.562 111.562 111.562 3.936 0 7.823-.207 11.654-.604-56.136-5.828-99.907-53.28-99.907-110.957z" fill="#ffb09e"/><path d="m495.085 205.643-41.987-18.247c-9.002-3.912-17.169-6.743-24.335-9.456-3.112-92.743-79.263-166.975-172.763-166.975-93.5 0-169.651 74.232-172.762 166.974-7.166 2.713-15.333 5.544-24.335 9.456l-41.987 18.247c-5.246 2.28-8.639 7.454-8.639 13.174 0 7.933 6.431 14.364 14.364 14.364h121.798c39.234-47.07 80.719-52.673 111.562-52.673s72.328 5.603 111.562 52.673h121.797c7.933 0 14.364-6.431 14.364-14.364 0-5.719-3.394-10.894-8.639-13.173z" fill="#494a47"/><g><path d="m31.585 218.816c0-5.719 3.393-10.894 8.639-13.174l41.987-18.247c9.002-3.912 17.169-6.743 24.335-9.456 2.981-88.857 73.012-160.71 161.108-166.576-3.853-.257-7.737-.398-11.654-.398-93.5 0-169.651 74.232-172.762 166.974-7.166 2.713-15.333 5.544-24.335 9.456l-41.987 18.247c-5.246 2.28-8.639 7.454-8.639 13.174 0 7.933 6.431 14.364 14.364 14.364h23.309c-7.934 0-14.365-6.431-14.365-14.364z" fill="#333331"/></g><path d="m170.92 417.491h-128.688v-20.745c0-11.457 9.288-20.745 20.745-20.745h107.943z" fill="#f8d250"/><path d="m86.285 376h-23.308c-11.457 0-20.745 9.288-20.745 20.745v20.745h23.308v-20.745c0-11.457 9.288-20.745 20.745-20.745z" fill="#f8ae46"/><path d="m150.175 438.236h-87.198c-11.457 0-20.745-9.288-20.745-20.745h128.688c0 11.457-9.288 20.745-20.745 20.745z" fill="#f8ae46"/><path d="m341.08 417.491h128.688v-20.745c0-11.457-9.288-20.745-20.745-20.745h-107.943z" fill="#f8d250"/><path d="m361.825 438.236h87.198c11.457 0 20.745-9.288 20.745-20.745h-128.688c0 11.457 9.288 20.745 20.745 20.745z" fill="#f8ae46"/><circle cx="346.531" cy="58.841" fill="#e15f4f" r="51.317"/><circle cx="346.531" cy="58.841" fill="#fff" r="29.469"/><circle cx="346.531" cy="58.841" fill="#68c0e0" r="10.774"/><g><path d="m497.078 201.057-41.987-18.247c-6.913-3.004-13.398-5.403-19.12-7.519-.796-.294-1.581-.585-2.355-.873-1.825-34.999-13.782-68.142-34.3-95.953 2.281-6.114 3.533-12.724 3.533-19.624 0-31.054-25.264-56.318-56.317-56.318-13.229 0-25.397 4.596-35.019 12.26-17.704-5.8-36.396-8.818-55.512-8.818-46.454 0-90.404 17.799-123.757 50.118-32.467 31.462-51.514 73.373-53.858 118.335-.774.288-1.56.578-2.355.873-5.722 2.116-12.207 4.515-19.12 7.519l-41.987 18.247c-7.074 3.075-11.646 10.046-11.646 17.759 0 10.677 8.687 19.364 19.364 19.364h86.652c-6.022 6.085-9.748 14.446-9.748 23.663 0 18.562 15.102 33.663 33.663 33.663h6.813c2.344 23.478 11.684 44.925 25.899 62.223v13.271h-102.944c-14.196 0-25.745 11.549-25.745 25.745v20.745c0 13.382 10.263 24.407 23.331 25.629-1.896 6.082-2.917 12.52-2.917 19.153v42.204c0 2.761 2.238 5 5 5h386.709c2.762 0 5-2.239 5-5v-42.204c0-6.635-1.041-13.068-2.94-19.151 13.079-1.211 23.354-12.241 23.354-25.63v-20.745c0-14.196-11.549-25.745-25.745-25.745h-102.944v-13.271c14.215-17.298 23.555-38.745 25.899-62.223h6.813c18.562 0 33.663-15.101 33.663-33.663 0-9.217-3.726-17.578-9.748-23.663h86.652c10.678 0 19.364-8.687 19.364-19.364.001-7.714-4.571-14.685-11.645-17.76zm-104.229-142.216c0 25.54-20.778 46.317-46.317 46.317-25.54 0-46.318-20.778-46.318-46.317s20.778-46.318 46.318-46.318c25.538 0 46.317 20.779 46.317 46.318zm-253.411 226.665h-6.23c-13.048 0-23.663-10.615-23.663-23.663s10.615-23.663 23.663-23.663h6.23zm10-50.495c37.242-43.833 76.464-49.504 106.562-49.504s69.319 5.671 106.562 49.504v48.827c0 58.758-47.804 106.562-106.562 106.562s-106.562-47.803-106.562-106.562zm65.747 264.465-34.309-73.966 73.205 30.438c.001 0 .009-.007.011-.008.609.252 1.256.391 1.909.391.65 0 1.303-.126 1.92-.383l75.141-31.243c-.76.574-1.531 1.131-2.327 1.646l-33.919 73.125zm-.143-106.512 11.685 8.175c.241.169.498.316.766.44 14.279 6.613 23.507 21.055 23.507 36.792v5.467l-75.08-31.218v-36.62-7.545c11.181 10.588 24.453 18.985 39.122 24.509zm27.888 6.698c4.292.481 8.651.737 13.07.737s8.778-.256 13.07-.737c-5.517 4.646-9.967 10.414-13.07 16.867-3.103-6.453-7.553-12.22-13.07-16.867zm93.15-23.662v36.62l-75.08 31.218v-5.467c0-15.737 9.228-30.179 23.507-36.792.268-.124.524-.271.766-.44l11.685-8.175c14.669-5.524 27.941-13.921 39.123-24.508v7.544zm-288.849 20.746c0-8.682 7.063-15.745 15.745-15.745h102.944v31.49h-118.689zm.814 25.745h117.062c-2.095 6.239-7.997 10.745-14.932 10.745h-87.198c-6.935 0-12.837-4.507-14.932-10.745zm19.601 39.781c0-6.653 1.217-13.074 3.442-19.036h79.087c9.368 0 17.581-5.031 22.086-12.532l31.9 68.772h-59.432v-8.175c0-2.761-2.238-5-5-5s-5 2.239-5 5v8.175h-67.083zm376.708 37.205h-67.083v-8.175c0-2.761-2.238-5-5-5s-5 2.239-5 5v8.175h-59.432l31.9-68.772c4.504 7.501 12.717 12.532 22.086 12.532h79.07c2.228 5.964 3.459 12.38 3.459 19.036zm4.669-66.241h-87.198c-6.935 0-12.837-4.507-14.932-10.745h117.062c-2.095 6.238-7.997 10.745-14.932 10.745zm0-52.236c8.682 0 15.745 7.063 15.745 15.745v15.745h-118.688v-31.49zm-46.568-119.157c0 13.048-10.615 23.663-23.663 23.663h-6.23v-47.326h6.23c13.048 0 23.663 10.615 23.663 23.663zm86.904-33.663h-110.567-8.906c-39.793-46.634-81.705-52.673-113.886-52.673s-74.093 6.039-113.886 52.673h-8.906-110.567c-5.163 0-9.364-4.201-9.364-9.364 0-3.73 2.211-7.101 5.632-8.588l41.987-18.247c6.657-2.893 13.003-5.241 18.603-7.312 1.896-.702 3.734-1.381 5.511-2.054 1.887-.714 3.159-2.492 3.227-4.509 1.463-43.626 19.563-84.411 50.967-114.843 31.477-30.502 72.956-47.3 116.798-47.3 16.239 0 32.149 2.318 47.351 6.772-8.194 9.783-13.138 22.375-13.138 36.104 0 31.053 25.265 56.317 56.318 56.317 20.119 0 37.797-10.612 47.76-26.524 18.1 26.2 28.386 57.049 29.474 89.473.067 2.016 1.34 3.794 3.227 4.509 1.776.673 3.614 1.352 5.511 2.054 5.6 2.071 11.945 4.419 18.603 7.312l41.987 18.247c3.421 1.487 5.632 4.858 5.632 8.588-.003 5.164-4.205 9.365-9.368 9.365z"/><path d="m186.283 236.834c.596-.342 14.792-8.269 29.881.05.766.422 1.593.623 2.409.623 1.763 0 3.473-.934 4.384-2.587 1.333-2.418.453-5.459-1.965-6.793-20.156-11.113-38.943-.4-39.734.061-2.376 1.388-3.174 4.431-1.796 6.814 1.376 2.383 4.433 3.199 6.821 1.832z"/><path d="m295.925 236.834c.596-.342 14.796-8.268 29.881.05.766.422 1.593.623 2.409.623 1.763 0 3.472-.934 4.384-2.587 1.333-2.418.453-5.459-1.965-6.793-20.153-11.113-38.945-.401-39.733.061-2.377 1.388-3.175 4.431-1.797 6.814 1.376 2.383 4.429 3.2 6.821 1.832z"/><path d="m201.179 250.497c-2.793 0-5.057 2.264-5.057 5.057s2.264 5.057 5.057 5.057 5.057-2.264 5.057-5.057-2.264-5.057-5.057-5.057z"/><path d="m310.821 250.497c-2.793 0-5.057 2.264-5.057 5.057s2.264 5.057 5.057 5.057 5.057-2.264 5.057-5.057-2.264-5.057-5.057-5.057z"/><path d="m237.14 337.293c.521.305 8.906 5.088 20.352 5.088 5.871 0 12.549-1.259 19.382-5.027 2.418-1.333 3.298-4.375 1.965-6.793-1.335-2.418-4.375-3.298-6.793-1.964-15.06 8.305-29.238.417-29.878.052-2.384-1.38-5.434-.574-6.823 1.805-1.394 2.385-.59 5.447 1.795 6.839z"/><path d="m243.757 301.949c3.271 3.27 7.618 5.072 12.243 5.072s8.973-1.801 12.242-5.071l6.123-6.122c1.953-1.952 1.953-5.118.001-7.071-1.953-1.953-5.118-1.953-7.071 0l-6.124 6.123c-1.381 1.381-3.218 2.142-5.171 2.142s-3.79-.761-5.172-2.143l-6.123-6.122c-1.953-1.953-5.118-1.952-7.071 0-1.952 1.953-1.952 5.119.001 7.071z"/><path d="m346.531 93.31c19.006 0 34.469-15.463 34.469-34.469s-15.463-34.469-34.469-34.469c-19.007 0-34.47 15.463-34.47 34.469s15.463 34.469 34.47 34.469zm0-58.938c13.492 0 24.469 10.977 24.469 24.469s-10.977 24.469-24.469 24.469-24.47-10.977-24.47-24.469 10.978-24.469 24.47-24.469z"/><path d="m346.531 74.615c8.697 0 15.773-7.076 15.773-15.774s-7.076-15.774-15.773-15.774c-8.698 0-15.774 7.076-15.774 15.774s7.076 15.774 15.774 15.774zm0-21.548c3.184 0 5.773 2.59 5.773 5.774s-2.59 5.774-5.773 5.774-5.774-2.59-5.774-5.774 2.591-5.774 5.774-5.774z"/></g></g></g></svg>