<svg id="icon" height="512" viewBox="0 0 340 340" width="512" xmlns="http://www.w3.org/2000/svg"><path d="m195.765 4.214-13.838 7.874-15.839-7.874v19.97c4.471 5.17 17.962 3.287 32.105.895.765-8.553.592-16.154-2.428-20.865z" fill="#ffb655"/><path d="m166.088 24.184v10.128h59.354v-30.098l-15.842 7.874-13.835-7.874v8.263a8 8 0 0 1 -6.694 7.9z" fill="#f27b31"/><path d="m57.441 283.838h15.042a0 0 0 0 1 0 0v44.676a3.817 3.817 0 0 1 -3.817 3.817h-7.408a3.817 3.817 0 0 1 -3.817-3.817v-44.676a0 0 0 0 1 0 0z" fill="#342a35"/><path d="m57.441 231.027v-190.14a74.073 74.073 0 0 1 4.81-26.256l2.711-7.151 2.711 7.151a74.073 74.073 0 0 1 4.81 26.256v196.023a26.935 26.935 0 0 1 -15.042-5.883z" fill="#e8eeff"/><path d="m72.483 236.91-15.042-5.883v24.412h15.042z" fill="#889ac4"/><path d="m64.962 250.669c-15.851 0-24.8 4.856-29.8 9.752l1.705 7.411 52.548-1.77c-2.06-6.689-5.369-11.912-11.132-14.255a72.573 72.573 0 0 0 -13.321-1.138z" fill="#ffb655"/><path d="m78.282 251.821a26.362 26.362 0 0 1 2.838 3.467 5.6 5.6 0 0 1 -4.648 8.732h-31.572s-5.747-.561-9.735-3.6a21.409 21.409 0 0 0 -6.075 9.991s-3.519 10.961 1.564 20.5c0 0 .831-19.629 21.781-19.629h51.716s-2.739-15.134-25.869-19.461z" fill="#f27b31"/><path d="m275.908 194.876s31.725 57.761 30 125.13a7.717 7.717 0 0 1 -7.738 7.474h-40.86l-24.809-80.957v-51.647z" fill="#3e3a6b"/><path d="m129.692 270.794s-7.5 28.655-9.855 48.954a6.951 6.951 0 0 0 6.918 7.732h24.976l6.394-43.413z" fill="#3e3a6b"/><path d="m278.476 231.85c3.909 7.163 8.536 15.8 11.392 21.645l-25.686 27.714 23.218 24.335s22.957-23.8 35.285-38.031a14.7 14.7 0 0 0 2.36-15.533c-3.8-8.665-10.216-22.933-16.8-35.791-9.398 2.194-19.419 7.973-29.769 15.661z" fill="#ffcac0"/><path d="m295.918 194.876-24.526 24.145s3.185 5.684 7.084 12.829c7.47-1 20.315-4.395 29.772-15.66a185.007 185.007 0 0 0 -12.33-21.314z" fill="#ef837c"/><path d="m130.645 237.261-2.732 11a26.058 26.058 0 0 1 -17.325 18.572 117.477 117.477 0 0 1 -21.983 3.962l-16.122 37.782s57.861 5.081 79.594-26.813l13.831-24.274v-15.376z" fill="#ffcac0"/><path d="m154.547 274.114c-5.846 9.841-12.907 26.321-10.786 46.246a8 8 0 0 0 7.97 7.12h88.283c22.586-52.045-7.19-68.972-85.467-53.366z" fill="#f5eef7"/><path d="m130.645 237.261c7.429 2.939 21.186 7.608 35.263 8.423v-34.484h-28.79z" fill="#ef837c"/><path d="m161.553 256.417v7.8a67.232 67.232 0 0 0 -7 9.9 8.521 8.521 0 0 0 5.806 2.413h62.019a16.572 16.572 0 0 1 13.3 6.69l5.72 7.7-7.36 7.032a15.254 15.254 0 0 0 -1.262 20.7l7.237 8.83h17.3a8 8 0 0 0 8-7.557c.613-11.708-1.633-34.846-24.789-53.7v-7.119z" fill="#b1a7c6"/><path d="m298.45 190.154-1.412-1.953a8 8 0 0 1 -1.486-4c-.745-8.522-6.288-40.53-47.557-50.085l-95.631 6.031s-44.329 18.44-33.88 62.338a16.944 16.944 0 0 1 .854 3.86v4.5a9.179 9.179 0 0 0 4.085 7.643c3.913 2.609 11.152 5.888 23.832 7.295a17.43 17.43 0 0 1 6.545.522s.287 16.657 7.753 25.56v7.386h78.976v-4.8s10.014-8.949 10.955-28.315l-.33-10.167s4.366 3.115 11.993 3.435a6.234 6.234 0 0 1 4.081 1.8l.605.592a6.347 6.347 0 0 0 7.447 1.054c1.187-.636 2.565-1.433 4.065-2.407l5.627-4.153a56.938 56.938 0 0 0 6.574-6.45l4.233-5.58a53.51 53.51 0 0 0 3.395-5.928 7.982 7.982 0 0 0 -.724-8.178z" fill="#f5eef7"/><path d="m152.364 140.151a65.951 65.951 0 0 0 -12.213 7.2c1.732 14.035 28.406 31.235 38.9 37.5a12.3 12.3 0 0 1 5.138 5.795c2.932 7.108 10.456 9.091 10.456 9.091 8.113 0 11.88-3.855 13.629-7.436a13.049 13.049 0 0 1 8.654-7.113c7.7-1.824 20.481-6.616 32.485-19.183 13.583-14.219 10.617-24.5 7.9-29.135a81.265 81.265 0 0 0 -9.313-2.75z" fill="#b1a7c6"/><path d="m282.92 202.467a84.559 84.559 0 0 0 8.619 7.367 54.473 54.473 0 0 0 4.226-5.584 78.553 78.553 0 0 1 -7.913-6.751c-3.326-3.3-5.877-7.871-7.8-13.974-9.9-31.367-33.645-35.129-34.651-35.274a3.5 3.5 0 0 0 -1 6.928c.2.03 20.386 3.235 28.973 30.452 2.274 7.211 5.397 12.719 9.546 16.836z" fill="#b1a7c6"/><path d="m199.268 267.422c.01-.064.02-.13.028-.2l1.555-13.345a3.5 3.5 0 0 0 -.824-2.687c-2.536-2.947-3.11-11.357-2.876-15.962 0-.061 0-.122 0-.183v-57.545a3.5 3.5 0 0 0 -7 0v57.461c-.085 1.767-.46 13.139 3.583 19.47l-1.385 11.888c-.473 2.733-6.8 40.009-4.318 61.16h7.05c-2.693-20.089 4.119-59.639 4.187-60.057z" fill="#b1a7c6"/><path d="m134.934 210.834c-.062 0-.123 0-.185 0a3.5 3.5 0 0 1 -3.313-3.677 70.162 70.162 0 0 0 -.416-11.741c-.006-.045-.012-.093-.017-.138-3.444-34.777 24.383-45.244 24.664-45.346a3.5 3.5 0 0 1 2.386 6.581c-.994.369-22.943 8.873-20.09 38.012a76.317 76.317 0 0 1 .463 12.995 3.5 3.5 0 0 1 -3.492 3.314z" fill="#b1a7c6"/><path d="m173.148 124.414c-8.59 1.276-17.721 4.525-22.918 12.063 0 0-6.145 7.142 3.654 19.1s38.367 30.723 38.367 30.723 9.7-2.218 27.1-10.229c19.656-9.052 42-29.466 30.371-46.075-4.514-6.449-13.91-8.741-23.716-9.133-19.156 3.589-37.106 5.291-52.858 3.551z" fill="#655baa"/><path d="m194.419 135.828 1.061-12.15a52.292 52.292 0 0 1 -7.267.124 76.443 76.443 0 0 0 -15.065.614 25.8 25.8 0 0 0 21.271 11.412z" fill="#3e3a6b"/><path d="m206.149 122.1-10.433 35.341-.977 28.195s5.38-.059 13.1-4.6c.091-6.445 3.293-13.55 3.293-13.55 17.7-15.086 15.977-38.91 14.874-46.609a112.15 112.15 0 0 0 -19.857 1.223z" fill="#3e3a6b"/><path d="m186.287 134.419v10.334a32.379 32.379 0 0 0 .656 6.639c.992 4.74 3.432 12.1 9.309 16.088 0 0 20.06-5.425 21.656-30.172v-9.208z" fill="#ffcac0"/><path d="m185.914 250.516h-25.6a6.474 6.474 0 0 0 -6.473 6.474v7.257a6.473 6.473 0 0 0 6.473 6.473h25.6z" fill="#342a35"/><path d="m243.878 250.516h-40.495v20.2h40.495a6.473 6.473 0 0 0 6.473-6.473v-7.253a6.474 6.474 0 0 0 -6.473-6.474z" fill="#342a35"/><rect fill="#ffb655" height="20.203" rx="6.411" width="30.29" x="179.503" y="250.516"/><path d="m78.476 270.794h9.875a6.053 6.053 0 0 1 6.053 6.053v12.741a6.053 6.053 0 0 1 -6.053 6.053h-13.485z" fill="#ef837c"/><path d="m71.542 318.909h-13.16a9.53 9.53 0 0 1 -9.529-9.53v-29.056a9.53 9.53 0 0 1 9.529-9.529h22.689v10.8a16.926 16.926 0 0 0 0 7.436v9.59a22.67 22.67 0 0 0 0 7.436v3.326a9.529 9.529 0 0 1 -9.529 9.527z" fill="#ffcac0"/><path d="m266.244 279.1-2.442-.835a15.542 15.542 0 0 0 -15.2 2.95 6.394 6.394 0 0 0 -.858 8.769l1.167 1.5-6.458 6.06a11.476 11.476 0 0 0 -.475 16.269l9.578 10.1a11.478 11.478 0 0 0 16.266.391l19.578-18.76s-7.508-20.731-21.156-26.444z" fill="#ffcac0"/><path d="m199.78 175.525a3.5 3.5 0 0 1 -3.383-2.606 3.632 3.632 0 0 1 2.508-4.29c20.621-6.675 31.271-19.166 35.873-26.22a1.659 1.659 0 0 1 3.022 1.191c-1.2 7.923-7.825 21.627-36.945 31.759a3.239 3.239 0 0 1 -1.075.166z" fill="#3e3a6b"/><path d="m155.044 196.4a2.163 2.163 0 0 0 -4.128-1.156 38.889 38.889 0 0 0 -2.588 9.768 138.368 138.368 0 0 0 -1.072 20.765c2.042.227 4.21.41 6.544.529a198.831 198.831 0 0 1 1.244-29.906z" fill="#b1a7c6"/><path d="m238.772 199.488a1.587 1.587 0 0 0 -3.115.411c-.184 9.172 2.418 21.145 15.818 26.234a64.626 64.626 0 0 0 -.321-10.166c-7.301-3.967-10.754-10.647-12.382-16.479z" fill="#b1a7c6"/><path d="m271.033 203.771a22.831 22.831 0 0 1 -3.3-2.7 45.475 45.475 0 0 1 -11.407-19.311 3.5 3.5 0 0 0 -6.824 1.555 51.7 51.7 0 0 0 13.252 22.676 29.614 29.614 0 0 0 4.3 3.542c6.5 4.49 10.2 8.216 12.287 10.907a58.974 58.974 0 0 0 5.624-4.155c-3.114-4.067-7.778-8.265-13.932-12.514z" fill="#b1a7c6"/><path d="m30.654 290.919s7.234 15.945 6.569 26.927c0 0-.377 9.5-8.578 9.634a10 10 0 0 1 -1.392-.075 7.885 7.885 0 0 1 -6.817-9.744c.069-.277.15-.56.246-.848a3.116 3.116 0 0 0 -1.682-3.835 3.11 3.11 0 0 0 -4.2 1.8c-1.295 3.667-2.364 10.061 2.578 15.918 8.671 10.278 22.323 3.012 25.988-4.441 4.232-8.609 4.362-18.028-4.131-36.865a13.548 13.548 0 0 1 -.807-9.15 12.246 12.246 0 0 1 7.646-8.255s-17.049-1.368-15.42 18.934z" fill="#f27b31"/><path d="m186.287 134.419c4.736 2.086 23.6 3.129 31.621-6.319v-19.148l-31.621 13.74z" fill="#ef837c"/><path d="m136.83 104.644a33.018 33.018 0 0 0 16.609-.74s4 16.9 27.784 12.8l33.478-3.565c6.137-2.366 11.408-5.58 14.123-11.3 0 0 3.231 3.662 13.786 4.524a39.341 39.341 0 0 0 -1.51-26.704s9.692.431 13.354-7.539c0 0-5.127-.263-9.63-6.335a21.593 21.593 0 0 1 -3.863-9.277c-.983-5.8-4.519-19.479-16.507-26.047a26.839 26.839 0 0 0 -12.914-3.142h-30.919a27.767 27.767 0 0 0 -16.874 5.625c-7.336 5.6-16.207 15.974-15.91 33.576.491 29.142-11.007 38.124-11.007 38.124z" fill="#342a35"/><path d="m188.115 52.52s-18.093 6.246-21.539 24.123v26.278s.646 21.54 24.555 23.909c0 0 23.478 2.369 28.216-17.878v-26.062s-22.147-5.219-31.232-30.37z" fill="#ffcac0"/><g fill="#ef837c"><circle cx="181.263" cy="91.674" r="3.559"/><circle cx="197.114" cy="91.674" r="3.559"/><path d="m62.812 289.027h18.259v-7.436h-18.259a3.718 3.718 0 0 0 -3.718 3.718 3.719 3.719 0 0 0 3.718 3.718z"/><path d="m62.812 306.053h18.259v-7.436h-18.259a3.718 3.718 0 0 0 -3.718 3.718 3.719 3.719 0 0 0 3.718 3.718z"/></g><path d="m201.838 253.477h-.614a2.944 2.944 0 0 0 -2.668 1.7l-4.74 10.175a1.692 1.692 0 0 0 1.534 2.406h6.488a4.069 4.069 0 0 0 4.069-4.069v-6.144a4.069 4.069 0 0 0 -4.069-4.068z" fill="#f27b31"/><path d="m178.336 143.951c.607 8.78 3.313 20.013 12.681 24.266l-2.358 7.211a25.041 25.041 0 0 1 -15.649-23.717 48.926 48.926 0 0 1 .6-7.965 2.382 2.382 0 0 1 4.726.205z" fill="#3e3a6b"/><path d="m187.514 184.661a8.411 8.411 0 0 1 -.413-2.611v-9.1a8.407 8.407 0 0 1 7.822-8.386s10.034 2.009 5.75 14.2-13.159 5.897-13.159 5.897z" fill="#ffb655"/><path d="m195.507 164.547c-.2 0-.39.016-.584.029a8.423 8.423 0 0 1 4.676 7.632v2.159a5.5 5.5 0 0 1 -2.7 4.732l-9.383 5.56a8.4 8.4 0 0 0 16.395-2.609v-9.1a8.406 8.406 0 0 0 -8.404-8.403z" fill="#f27b31"/></svg>