<svg id="icon" height="512" viewBox="0 0 340 340" width="512" xmlns="http://www.w3.org/2000/svg"><path d="m78.247 97.522a45.95 45.95 0 0 1 -13.564.037c-18.275-2.682-30.583-10.159-38.731-17.951-3.826 22.833-4.387 44.505 0 64.419 8.152-7.8 20.484-15.286 38.794-17.96a45.79 45.79 0 0 1 13.5.046c6.524.992 16.143 3.378 24.719 9.121a2.536 2.536 0 0 0 3.921-2.133v-42.571a2.535 2.535 0 0 0 -3.936-2.118c-8.574 5.733-18.182 8.118-24.703 9.11z" fill="#7f91bf"/><path d="m25.961 79.6a59.912 59.912 0 0 1 -12-16.1 2.094 2.094 0 0 0 -3.921.589q-8.232 46.137.065 95.3a2.093 2.093 0 0 0 3.922.62 59.98 59.98 0 0 1 11.933-15.972 170.242 170.242 0 0 1 .001-64.437z" fill="#e4efff"/><path d="m69.5 77.982 12.653-19.631-11.986-48.366a195.6 195.6 0 0 0 -17.855 60.464 12.218 12.218 0 0 1 1.148.5z" fill="#e4efff"/><path d="m62.757 84.17v56.949l14.82 6.708v-63.657c.735-10.3 10.445-13.721 10.445-13.721a195.6 195.6 0 0 0 -17.855-60.464v46.436a10.435 10.435 0 0 1 -6.694 9.742l-11.161 4.286s9.71 3.423 10.445 13.721z" fill="#7f91bf"/><path d="m62.757 173.375q8.084 4.2 14.82 0v-25.548l-14.82-6.708z" fill="#e4efff"/><path d="m62.757 173.375h14.82v156.611h-14.82z" fill="#3c3c4f"/><path d="m281.825 160.752c3.521 4.259 7.32 8.893 11.224 13.713a8.756 8.756 0 0 0 3.807 4.721c3.819 4.755 7.683 9.628 11.434 14.45a10.5 10.5 0 0 0 3.71 4.805c3.56 4.64 6.963 9.177 10.064 13.455.2 1.759 1.678 3.409 3.438 5.035a24.754 24.754 0 0 1 2.957 16.64 29.683 29.683 0 0 1 -3.571 9.555l-38.888-2.797s-3.612-6.068-9.525-14.246a7.128 7.128 0 0 0 -3.6-4.843c-2.729-3.578-5.794-7.378-9.109-11.139-5.816-30.027-3.317-50.513 18.059-49.349z" fill="#e4efff"/><path d="m288.053 235.028h36.079a6.414 6.414 0 0 1 5.378 9.908c-7 10.794-18.965 28.187-30.93 40.663l-4.931 5.532c-12.4 5.854-31.352-8.4-22.056-22.659a207.776 207.776 0 0 1 5.64-25.244 11.256 11.256 0 0 1 10.82-8.2z" fill="#d88783"/><path d="m267.218 268.473a14.621 14.621 0 0 0 -10 3.959l-11.164 10.476a47.661 47.661 0 0 0 16.582 25.046 12.636 12.636 0 0 0 17.308-1.45l13.7-15.373c-4.132.669-8.286.419-11.824-1.65-12.4-7.25-10.232-21.009-10.232-21.009z" fill="#874f4f"/><path d="m262.3 137.5-12.725 2 1.3 57.658a137.536 137.536 0 0 1 12.9 12.949c.408-31.2 12.309-44.666 18.058-49.352-11.17-13.507-19.533-23.255-19.533-23.255z" fill="#7f91bf"/><path d="m118.011 155.557q-.376.836-.746 1.723c-.833 2-1.839 4.61-2.967 7.661.346 3.141-.241 5.277-2.164 5.973-1.82 5.106-3.828 10.919-5.864 16.914.289 2.9-.189 5.1-2.044 6.052-6.947 20.668-13.6 41.418-13.6 41.418l27.813 30.8 14.8-26.145c.487-2.635 1.279-4.731 2.966-5.239l1.964-3.47c5.031-40.526 3.804-72.91-20.158-75.687z" fill="#e4efff"/><path d="m114.625 164.061c4.131 2.771 14.073 8.118 18.461 19.483a30.069 30.069 0 0 1 1.869 12.237c-.3 6.3-.522 21.757 3.218 35.459l14.446-25.518v-68.222h-19.328s-12.04 7.032-18.666 26.561z" fill="#7f91bf"/><path d="m157.492 285.6s-16.584 13.007-21.593 44.386h134.555s-3.469-35.458-20.973-44.386c0 0-42.849-14.068-91.989 0z" fill="#d88783"/><path d="m142.952 139.763v75.282s.323 22.293 10.986 35.217c0 0-8.078 10.016 3.554 15.832 29.442 3.3 60.231 3.049 92.082 0 0 0 9.37-6.785 0-17.124 0 0 6.462-7.108 6.462-28.433v-83.037z" fill="#d88783"/><path d="m153.938 250.262s-8.078 10.016 3.554 15.832c29.442 3.3 60.231 3.049 92.082 0 0 0 9.37-6.785 0-17.124 0 0-13.368 6.305-50.08 8.348s-45.556-7.056-45.556-7.056z" fill="#874f4f"/><path d="m256.036 156.09v-18.59l-113.084 2.261v20.221c3.389 2.232 8.271 6.322 14.54 13.819 0 0 14.569 17.493 44.281 11.782 0 0 23.773-5.825 41.367-21.659a47.162 47.162 0 0 1 12.896-7.834z" fill="#874f4f"/><path d="m184.5 186.432v7.5h-15.669a3.929 3.929 0 0 0 -3.929 3.929v19.61a3.929 3.929 0 0 0 3.929 3.928h15.669v36.146c10.468 1.9 20.381 1.824 29.43-1.343v-34.802h15.666a3.929 3.929 0 0 0 3.929-3.928v-19.61a3.929 3.929 0 0 0 -3.929-3.929h-15.669v-12.446z" fill="#fff"/><path d="m199.494 257.318c-5.634.313-10.606.362-15 .224v10.583q14.526.589 29.43.184v-12.109c-4.348.438-9.139.823-14.43 1.118z" fill="#ded9d9"/><path d="m199.779 138.627-15.282.3v47.5a53.7 53.7 0 0 0 6.593.291 56.313 56.313 0 0 0 17.542-3.252c1.57-.546 3.354-1.205 5.295-1.984v-43.138z" fill="#ded9d9"/><path d="m121.11 128.291a7.4 7.4 0 0 0 2.924 13.854c6.143.54 14.371 3.188 24.58 10.641 24.728 18.051 32.641 18.546 48.22 18.546s37.34-15.826 37.34-15.826 14.037-12.191 38.92-12.627c6.932-.121 10.657-8.378 5.988-13.5-4.586-5.033-12.393-9.938-25.682-11.926a21 21 0 0 1 -16.907-14.166 39.622 39.622 0 0 1 -1.825-12.319v-32.397a41.543 41.543 0 0 0 -41.543-41.544 41.544 41.544 0 0 0 -41.544 41.544v29.5a45.087 45.087 0 0 1 -4.093 19.1c-2.636 5.641-6.9 11.6-13.711 14.952-5.137 2.527-9.332 4.355-12.667 6.168z" fill="#e4efff"/><path d="m166.931 92.51v14.164a26.684 26.684 0 0 0 19.4 25.855c7.395 1.817 17.213-.307 23.57-5.4-.415 10.369-6.879 14.38-10.237 17.414a2.28 2.28 0 0 0 1.858 3.93c.172-.023.343-.047.512-.073a20.245 20.245 0 0 0 16.923-20.129v-24.421z" fill="#7f91bf"/><path d="m192.946 118.524a26.015 26.015 0 0 1 -26.015-26.014v-30.01q0-.806.049-1.6c19.242-2.62 36.628 1.615 51.981 13.35v18.26a26.014 26.014 0 0 1 -26.015 26.014z" fill="#ffd7cd"/><path d="m106.938 235.556 10.574 10.194a43.252 43.252 0 0 1 13.32 32.448 91.325 91.325 0 0 1 -1.249 12.656 10.314 10.314 0 0 1 -15.365 7.158 100.336 100.336 0 0 1 -20.051-15.468c-9.342-24.962-2.757-39.032 12.771-46.988z" fill="#d88783"/><path d="m209.785 329.985v-26.491c0-14.571-5.859-23.046-6.108-23.4a3.455 3.455 0 0 0 -.738-.745q-2.119 0-4.3.056a3.5 3.5 0 0 0 -.693 4.708c.049.07 4.84 7.166 4.84 19.381v26.491z" fill="#874f4f"/><circle cx="185.334" cy="86.517" fill="#3c3c4f" r="3.559"/><circle cx="201.773" cy="86.517" fill="#3c3c4f" r="3.559"/><path d="m96.954 225.93c-20.6-1.639-26.45 18.647-26.45 18.647a98.273 98.273 0 0 0 23.665 37.965c-4.609-28.332 8.129-42.773 12.769-46.986z" fill="#874f4f"/><path d="m85.94 205.722h10.46a5.93 5.93 0 0 1 5.93 5.93v13.576a5.93 5.93 0 0 1 -5.93 5.929h-14.2z" fill="#874f4f"/><path d="m62.233 205.722h25.667a0 0 0 0 1 0 0v31.287a9.129 9.129 0 0 1 -9.129 9.129h-16.538a9.129 9.129 0 0 1 -9.129-9.129v-22.158a9.129 9.129 0 0 1 9.129-9.129z" fill="#d88783"/><path d="m157.492 266.094h37.855v19.505h-37.855z" fill="#3c3c4f"/><path d="m206.285 266.094h43.289l-.093 19.505h-43.196z" fill="#3c3c4f"/><rect fill="#e4efff" height="19.505" rx="7.641" width="26.222" x="187.705" y="266.094"/><path d="m168.143 54.628a25.927 25.927 0 0 0 -1.15 6.272c.286 5.908 1.764 16.086 22.485 19.149a3.848 3.848 0 0 0 4.3-2.9l.678-2.808a37.562 37.562 0 0 0 24.5-.1v-4.23c-12.699-12.297-29.33-17.245-50.813-15.383z" fill="#f79089"/><path d="m192.946 36.483a26.023 26.023 0 0 0 -24.8 18.146c1.837 5.275 6.409 12.167 17.748 15.82l3.618-11.455s7.3 11.894 29.449 11.017v-7.511a26.015 26.015 0 0 0 -26.015-26.017z" fill="#3c3c4f"/><path d="m206.285 266.094h-1.226l-7.737 19.5h8.963a7.641 7.641 0 0 0 7.642-7.642v-4.222a7.641 7.641 0 0 0 -7.642-7.636z" fill="#7f91bf"/><g fill="#3c3c4f"><path d="m10.864 169.842a3.511 3.511 0 0 0 3.856-2.494c4.547-15 22.408-32.632 44.537-36.711v71.954a12.64 12.64 0 0 0 -9.652 12.26v22.158a12.642 12.642 0 0 0 9.652 12.26v80.716a3.5 3.5 0 0 0 3.5 3.5h14.82a3.5 3.5 0 0 0 3.5-3.5v-57.352c8.4 12.055 28.7 30.453 38.341 30.289a13.9 13.9 0 0 0 13.613-11.468c2.208-12.018 2.02-25.565-4.237-36.541l12.979-22.927c1.483 6.087 3.913 12.832 7.9 18.451-3.368 5.778-2.589 13.562 4.324 17.679v15.9c-4.233 3.934-17.16 17.924-21.549 45.42a3.524 3.524 0 0 0 3.456 4.051h134.55c2.515 0 3.579-2.858 3.484-3.84a108.3 108.3 0 0 0 -2.9-15.456 16.108 16.108 0 0 0 11.523-5.356l18.591-20.858c11.823-12.339 23.542-29.176 31.3-41.135a9.876 9.876 0 0 0 -.734-11.754 28.364 28.364 0 0 0 -4.784-22.423c-15.319-21.507-39.655-50.963-52.6-66.37a11.567 11.567 0 0 0 9.363-7c5.794-14.137-16.266-23.545-29.778-25.3-11.687-1.926-15.906-12.1-15.749-23.023v-32.402c-2.118-59.611-87.974-59.607-90.087 0v29.5a41.289 41.289 0 0 1 -3.764 17.618c-5.8 12.842-14.4 13.834-24.879 19.526-7.918 4.051-7.314 16.035.685 19.487-9.945 15.705-13.857 33.912-22.373 57.52h-16.675v-72.05c7.053 1.433 16.1 4.426 23.554 10.684a3.524 3.524 0 0 0 5.75-2.682v-52.711a3.524 3.524 0 0 0 -5.75-2.681c-7.43 6.234-16.412 9.235-23.554 10.682v-9.163c.623-7.713 7.823-10.444 8.109-10.55a3.5 3.5 0 0 0 2.314-3.71 197.226 197.226 0 0 0 -18.227-61.668 3.525 3.525 0 0 0 -6.212 0 197.226 197.226 0 0 0 -18.226 61.668 3.529 3.529 0 0 0 2.292 3.7c.308.113 7.509 2.844 8.13 10.56v8.7c-22.157-4.072-40.03-21.791-44.535-36.7a3.5 3.5 0 0 0 -6.866.957v109.125a3.5 3.5 0 0 0 3.008 3.46zm63.213 156.643h-7.82v-76.847h2.382a104.847 104.847 0 0 0 5.438 11.811zm53.257-48.4a87.645 87.645 0 0 1 -1.2 12.167 6.848 6.848 0 0 1 -10.148 4.738 94.666 94.666 0 0 1 -39.8-45.353c9.5.791 15.954-5.424 15.216-14.981 1.728-.076 7.674.231 9.254-.3 13.685 13.5 27.136 22.321 26.678 43.73zm-28.976-68.863a2.432 2.432 0 0 1 2.43 2.429v13.577a2.432 2.432 0 0 1 -2.43 2.429h-6.958v-18.435zm21.583 34.009-13.56-13.073c1.9-2.555 1.34-7.4 1.407-10.426a131.047 131.047 0 0 0 24.112 15.486l-7.411 13.092a47.371 47.371 0 0 0 -4.548-5.079zm15.417-14.123c-2.585-1.208-5.133-2.578-7.577-4.019 1.291-2.769 4.372-6.4.51-8.664-3.879-1.7-5.057 2.268-6.453 4.913-2.612-1.753-5-3.486-7.047-5.043l2.142-4.215a3.5 3.5 0 0 0 -6.242-3.171l-1.486 2.926c-.682-.573-1.185-1.008-1.485-1.271a9.416 9.416 0 0 0 -3.322-6.145q2.141-6.45 4.059-12.131c5.479 4.948 17.684 15.062 31 20.14a59.514 59.514 0 0 0 .427 8.693zm-19.178-59.108c4.74 3.854 14.261 11.075 23.272 14.815v20.04a77.223 77.223 0 0 1 -10.072-5.412l2.269-4.4a3.5 3.5 0 0 0 -6.223-3.205l-1.881 3.651a127.166 127.166 0 0 1 -12.62-10.467c1.983-5.792 3.741-10.817 5.255-15.022zm23.272-18.989v26.122a83.085 83.085 0 0 1 -10.074-6l2.475-4.665a3.5 3.5 0 0 0 -6.184-3.28l-2.011 3.791c-2.18-1.672-3.9-3.091-4.907-3.938 2.249-6.181 5.312-12.553 8.984-16.766a44.193 44.193 0 0 1 11.717 4.74zm7 64.03v-59.5c16.161 11.814 25.614 16.489 34.545 18.211v16.675h-16.097a3.5 3.5 0 0 0 -3.5 3.5v27.473a3.5 3.5 0 0 0 3.5 3.5h16.1v37.7h-22.628c-5.07-2.5-3.984-7.182-1.71-10.135a3.5 3.5 0 0 0 -.025-4.424c-9.737-11.807-10.182-32.841-10.185-32.996zm119.248-68.136c5.337 6.32 14.02 16.69 23.468 28.33l-5.357 5.172-2.874-3.666a3.5 3.5 0 0 0 -5.508 4.32l3.319 4.233-8.55 8.253a3.5 3.5 0 0 0 4.862 5.037l18.52-17.884c3.2 3.985 6.445 8.058 9.631 12.121l-16.42 14.871-3.492-4.33a3.5 3.5 0 1 0 -5.449 4.394l3.744 4.643-6.541 5.924a185.347 185.347 0 0 0 -15.517-17.852v-19.058l12.071-12.126a3.5 3.5 0 0 0 -4.961-4.938l-7.11 7.142v-23.549c1.94-.42 3.998-.771 6.164-1.037zm-70.353 135.195a4.147 4.147 0 0 1 -4.142-4.141v-4.223a4.147 4.147 0 0 1 4.142-4.141h10.938a4.147 4.147 0 0 1 4.142 4.141v4.223a4.147 4.147 0 0 1 -4.142 4.141zm-10.335-12.5c-1.068 2.219-.778 5.922-.807 8.364a11.06 11.06 0 0 0 .807 4.141h-24.02v-12.5zm31.608 0h29.438l-.058 12.5h-29.38c1.068-2.219.778-5.922.807-8.364a11.06 11.06 0 0 0 -.807-4.142zm36.447-1.928c4.847-4.572 5.779-12.616.856-18.9 4.614-7.485 6.112-21.868 5.613-38.144a218.248 218.248 0 0 1 18.948 24.467 14.759 14.759 0 0 0 -4.619 7.18 228.938 228.938 0 0 0 -5.254 22.7 18.507 18.507 0 0 0 -13.787 4.907l-1.776 1.666zm-.531-47.129c0 19.3-5.536 26.058-5.552 26.078a3.5 3.5 0 0 0 0 4.7c3.65 3.816 4.381 8.163 1.244 11.274h-30.8v-37.695h16.1a3.5 3.5 0 0 0 3.5-3.5v-27.471a3.5 3.5 0 0 0 -3.5-3.5h-16.101v-21.144a118.927 118.927 0 0 0 19.034-11.13c.086-.074 5.763-4.843 16.075-8.292zm-38.609-23.108h16.1v20.465h-16.1a3.5 3.5 0 0 0 -3.5 3.5v41.2h-22.427v-41.2a3.5 3.5 0 0 0 -3.5-3.5h-16.1v-20.471h16.1a3.5 3.5 0 0 0 3.5-3.5v-19.3c7.391.506 14.966.411 22.43-2.486v21.79a3.5 3.5 0 0 0 3.497 3.496zm-55.11 91.67h41.066c.818 1.564 2.9 6.341 2.9 14.4v22.991h-62.7c4.633-22.814 15.617-34.471 18.734-37.396zm50.968 37.386c-.2-8.457 1.059-30.656-2.3-37.386h41.092c11.888 6.786 16.47 28.5 17.873 37.386zm116.788-83.453c-6.231 9.617-18.528 27.661-30.6 40.238l-18.634 20.905a9.118 9.118 0 0 1 -8.455 2.879c-3.148-9.07-8.131-18.521-15.888-23.465l.011-2.4 6.612-6.206a11.081 11.081 0 0 1 7.605-3.011h4.375a3.5 3.5 0 0 0 3.466-3.017 205.547 205.547 0 0 1 5.54-24.772 7.788 7.788 0 0 1 7.453-5.655h36.079a2.9 2.9 0 0 1 2.436 4.498zm-1.383-11.438c-2.359-.009-38.946-.447-40.412.311-1.5-2.257-3.366-4.97-5.522-7.949l28.266-25.6c2.921 3.781 5.753 7.508 8.416 11.1l-4.826 4.555c-1.916-2.306-3.934-6.16-7.428-3.666-3.365 3.021.51 6.019 2.321 8.486l-2.533 2.391a3.517 3.517 0 0 0 2.4 6.045 3.482 3.482 0 0 0 2.4-.954l11.828-11.163a22.442 22.442 0 0 1 5.09 16.444zm-202.409-100.234c3.684-1.978 8.327-4.012 12.541-6.1 12.821-6.126 19.955-22.63 19.759-37.192v-29.504c2.081-50.448 74-50.475 76.087 0v32.395c-.472 14.144 6.888 27.773 21.714 29.946 10.566 1.582 18.511 5.223 23.613 10.822a4.371 4.371 0 0 1 .773 4.787 4.6 4.6 0 0 1 -4.236 2.859c-24.832.436-39.358 11.979-41.013 13.366-22.945 16.108-46.563 25.067-81.342-2.787-9.284-6.777-18.145-10.579-26.336-11.3a3.892 3.892 0 0 1 -1.56-7.292zm-38.381 105.643a5.635 5.635 0 0 1 -5.629 5.629h-16.538a5.635 5.635 0 0 1 -5.628-5.629v-22.158a5.635 5.635 0 0 1 5.628-5.629h22.167zm18.981-144.709v39.045a64.914 64.914 0 0 0 -22.3-8.3v-22.45a64.713 64.713 0 0 0 22.3-8.295zm-47.281-23.909a197.081 197.081 0 0 1 14.067-50.057 197.04 197.04 0 0 1 14.069 50.057 19.229 19.229 0 0 0 -10.15 15.53c-.033.186 0 118.082-.009 118.3h-7.82c-.009-.251.017-118.071-.009-118.3a19.229 19.229 0 0 0 -10.148-15.53zm3.159 55.086a73.114 73.114 0 0 0 -29.8 12.984v-49.287a73.088 73.088 0 0 0 29.8 12.984zm-44.4-51.6a64.337 64.337 0 0 0 7.606 9.193v61.5a64.341 64.341 0 0 0 -7.606 9.194z"/><path d="m185.412 135.905c4.024 1.464 19.679 1.416 16.992-5.614a3.5 3.5 0 0 0 -4.628-1.758c-11.276 4.622-24.224-4.894-26.656-16.176 11.6 13.14 33.245 12.726 44.342-.794v15.656c-.374 9.737-7.571 18.045-21.908 17.772a3.5 3.5 0 0 0 0 7c9.422 0 16.793-2.638 21.908-7.843a25.63 25.63 0 0 0 7-16.989v-64.659c-1.375-39.069-57.7-39.07-59.03 0v44.176a30.188 30.188 0 0 0 21.98 29.229zm7.534-20.881a22.54 22.54 0 0 1 -22.515-22.514v-27.471c3.158 3.4 7.763 6.5 14.39 8.742a3.243 3.243 0 0 0 4.411-2.278l1.844-5.841c4.314 3.492 12.013 7.617 24.385 7.87v18.978a22.54 22.54 0 0 1 -22.515 22.514zm0-75.042c14.511.123 23.925 12.551 22.515 26.562-16.963-.383-22.733-9.021-22.967-9.381a3.522 3.522 0 0 0 -6.32.778l-2.5 7.928c-6.934-3.062-10.234-7.564-11.8-11.3a22.426 22.426 0 0 1 21.072-14.587z"/></g></svg>