<svg id="icon" height="512" viewBox="0 0 340 340" width="512" xmlns="http://www.w3.org/2000/svg"><path d="m45.091 283.032-5.845 33.125s-3.619 11.7 7.516 15.312h18.415l12.761-46.21z" fill="#f79089"/><path d="m65.177 135.221s-17.377 67.826-22.851 110.593a18.542 18.542 0 0 1 -5.411 11c-3.632 3.514-7.82 9.5-5.937 17.4a17.471 17.471 0 0 0 1.426 3.878c7.745 4.308 18.309 6.824 30.823 8.1 25.388-58.942 31.467-111.157 1.95-150.971z" fill="#fdfbff"/><path d="m87.274 264.446s4.516-55.1-8.254-98.709l-10.88-3.492s18.143 72.816-8.859 104.773c-9.906 11.724-19.142 13.505-26.869 11.068a18.71 18.71 0 0 0 15.35 10l29.9 2.126z" fill="#b9b4d3"/><path d="m188.4 132.626s10.389 4.884 12.466 27.045a234.522 234.522 0 0 0 5.846 33.5c-.779 3.567-.344 6.491 2.234 8.281a15.282 15.282 0 0 1 13.851 2.77s10.62-5.541 25.856-2.309c.327 23.212-5.322 42.62-29.016 50.547-29.637-2.837-48.637-16.886-48.592-51.004l10.776-66.235z" fill="#fdfbff"/><path d="m199.35 216.516c.954-11.533 9.6-15.06 9.6-15.06s-.955-3.126-2.234-8.281a14.982 14.982 0 0 0 -9.532 8.281c-2.655 5.418-1.826 11.164-.453 15.379a1.344 1.344 0 0 0 2.619-.319z" fill="#b9b4d3"/><path d="m261.814 236.545-7.857-20.676-13.237 1.718c-1.562 26.615-19.98 29.057-32.724 27.49a26.188 26.188 0 0 1 -20.169-14.216c-15.2-30.261-2.163-78.541-2.163-78.541s-9.939 1.142-23.053 3.908v70.772c9.379 33.68 60.158 31.9 60.158 31.9 30.223 2.842 39.045-22.355 39.045-22.355z" fill="#b9b4d3"/><path d="m260.032 272v59.472h18.53v-68.641c-6.289.002-12.489 2.44-18.53 9.169z" fill="#d88783"/><path d="m260.032 141.765h18.53v84.476h-18.53z" fill="#d88783"/><path d="m145.514 99.739h-40.187c-19.759 24.25-6.327 65.774-6.327 65.774h52.849s13.424-41.524-6.335-65.774z" fill="#ffd7cd"/><path d="m145.514 99.739h-40.187c-2.771 3.4-6.017 10.662-7.612 14.582 3.128 4.612 8.328 8.824 14.333 12.056a6.094 6.094 0 0 0 8.132-2.285l2.8-4.759s18.464 17.122 31.269-1.639a46.093 46.093 0 0 0 -8.735-17.955z" fill="#f79089"/><path d="m154.944 117.244s-11.445 27.178-29.523 39.528c-18.079-12.35-29.521-39.528-29.521-39.528-2.7 44.9 18.861 115.2 18.861 115.2h21.325s21.553-70.301 18.858-115.2z" fill="#fdfbff"/><path d="m104.627 117.936c.847 25.813 2.924 71.671 7.547 101.1-14.026 5.312-25.322 3.788-33.032-6.72-1.294-15.564-10.591-51.406-18.667-74.547a12.173 12.173 0 0 1 3.495-13.208c6.84-5.95 18.593-15.33 31.684-22.094 4.179 3.593 6.826 9.201 8.973 15.469z" fill="#d88783"/><path d="m146 125.105c-.978 26.5-3.076 67.062-7.3 93.933 0 0 8.481 5.629 18.723 3.7s14.489-12.26 14.489-12.26c1.813-16.4 10.715-50.436 18.487-72.706a12.171 12.171 0 0 0 -3.5-13.208 181.005 181.005 0 0 0 -25.1-18.423q-9.957 4.454-15.799 18.964z" fill="#d88783"/><path d="m104.111 98.585c-2.856 1.14-8.7 4.067-11.467 5.5 1.171 10.7 11.983 17.658 11.983 17.658-.386-11.753-.516-23.158-.516-23.158z" fill="#874f4f"/><path d="m146.763 98.585s-.186 10.783-.767 26.52a32.324 32.324 0 0 0 15.8-18.962 106.967 106.967 0 0 0 -15.033-7.558z" fill="#874f4f"/><path d="m101.958 65.335h5.494a0 0 0 0 1 0 0v22.836a0 0 0 0 1 0 0h-5.494a11.418 11.418 0 0 1 -11.418-11.418 11.418 11.418 0 0 1 11.418-11.418z" fill="#f79089"/><path d="m154.808 65.335h5.492a0 0 0 0 1 0 0v22.836a0 0 0 0 1 0 0h-5.494a11.418 11.418 0 0 1 -11.418-11.418 11.418 11.418 0 0 1 11.42-11.418z" fill="#f79089" transform="matrix(-1 0 0 -1 303.691 153.507)"/><path d="m111.814 13.961s-19.53.331-25.489 20.082 7.614 35.309 21.737 34.426h33.875s22.4-3.641 21.958-25.158-17.655-34.661-33.213-34.647c0 0-12.137-.552-18.868 5.297z" fill="#f77362"/><path d="m108.768 36.868s.988 14.395 20.18 16.794c0 0 3.529-4.657 1.694-13.548 0 0 2.065 6.2 10.466 9.229a8.574 8.574 0 0 1 5.621 8.252l-2.876 31.772h-37.1l-2.639-41.632s-.003-7.056 4.654-10.867z" fill="#ffd7cd"/><path d="m148.614 101.188s4.057-21.277-23.176-21.213c0 0-21.327-1.558-24.069 13.028 0 0-3.405 16.311 13.447 24.241l5.1-9.371s4.265 3.328 8.991 6.529a10.627 10.627 0 0 0 13.119-.857c2.674-2.456 5.301-6.317 6.588-12.357z" fill="#f77362"/><path d="m114.758 232.441h21.325s1.561-5.092 3.789-13.4h-28.9c2.228 8.308 3.786 13.4 3.786 13.4z" fill="#b9b4d3"/><path d="m80.886 264.446a170.382 170.382 0 0 0 -15.709 67.023h92.209l13.659-67.023c-16.374-4.701-57.602-5.464-90.159 0z" fill="#d88783"/><path d="m80.886 264.446 42.691 8.141a10.367 10.367 0 0 1 8.389 11.047l-2.781 33.28a24.3 24.3 0 0 0 2.618 14.555h25.583l13.659-67.023c-16.374-4.701-57.602-5.464-90.159 0z" fill="#874f4f"/><circle cx="118.098" cy="66.386" fill="#3c3c4f" r="3.559"/><circle cx="132.744" cy="66.386" fill="#3c3c4f" r="3.559"/><path d="m260.032 272 18.53-9.166v-40.285a20.583 20.583 0 0 0 -2.435-.889c-4.592-1.327-10.927-.89-16.1-.127z" fill="#874f4f"/><path d="m254.5 195.871h-6.285a7.5 7.5 0 0 0 -7.5 7.5v14.219a7.5 7.5 0 0 0 7.5 7.5h15.427z" fill="#f79089"/><path d="m279.6 242.205h-16.4a8.7 8.7 0 0 1 -8.7-8.705v-3.138a11.227 11.227 0 0 0 0-7v-10.073q1.36-2.123 0-7v-10.418h25.1a8.706 8.706 0 0 1 8.7 8.706v28.923a8.705 8.705 0 0 1 -8.7 8.705z" fill="#ffd7cd"/><g fill="#874f4f"><path d="m171.912 210.478s-6.1 8.56-21.478 8.56h-11.734c-.786 5-1.645 9.53-2.584 13.4h26.72s8.308-2.245 8.757-17.738c.036-1.224.148-2.648.322-4.224z"/><path d="m79.137 212.32c.071.852.123 1.658.144 2.383.449 15.493 8.757 17.738 8.757 17.738h26.72c-.938-3.87-1.794-8.407-2.579-13.4h-17.64a29.716 29.716 0 0 1 -15.402-6.721z"/><path d="m260.032 121.011h18.53v20.754h-18.53z"/></g><path d="m291.058 11.469a61.033 61.033 0 0 1 4.049 22.284v65.469a9.517 9.517 0 0 1 -9.517 9.517 9.517 9.517 0 0 1 -9.517-9.517v-65.811s0-20.543-18.339-21.942a61.033 61.033 0 0 1 4.049 22.284v65.469a9.517 9.517 0 0 1 -9.517 9.517 9.517 9.517 0 0 1 -9.516-9.517v-65.811s0-20.543-18.339-21.942a61.033 61.033 0 0 1 4.049 22.284v69.6a21.513 21.513 0 0 0 21.513 21.513h37.91a21.514 21.514 0 0 0 21.517-21.513v-69.942s0-20.543-18.342-21.942z" fill="#e4efff"/><path d="m80.886 264.446h90.159v-24.209a8.4 8.4 0 0 0 -7.832-8.374 514.765 514.765 0 0 0 -74.6-.1 8.385 8.385 0 0 0 -7.723 8.367z" fill="#ffc362"/><path d="m156.236 248.964 9.8 82.505h29.825s-8.651-50.631-24.816-82.5z" fill="#ffc362"/><path d="m156.236 248.964c5.252 21.484 13.76 55 14.809 82.505h-13.659a13.586 13.586 0 0 1 -13.586-13.886l1.515-68.619z" fill="#fa883e"/><path d="m80.886 252.464h89.105a3.5 3.5 0 0 0 3.5-3.5 3.5 3.5 0 0 0 -3.5-3.5h-89.105z" fill="#fa883e"/><path d="m312.9 103.353v-69.942c0-8.227-4.509-24.13-21.572-25.431a3.526 3.526 0 0 0 -3.478 4.882 58.312 58.312 0 0 1 3.76 20.891v65.469c-.249 7.928-11.772 7.972-12.034 0v-65.811c0-8.227-4.509-24.13-21.572-25.431a3.526 3.526 0 0 0 -3.477 4.882 58.312 58.312 0 0 1 3.76 20.891v65.469a6.018 6.018 0 0 1 -12.035 0v-65.811c0-8.227-4.508-24.13-21.572-25.431a3.525 3.525 0 0 0 -3.475 4.888 57.673 57.673 0 0 1 3.756 20.885v69.6a25.042 25.042 0 0 0 25.014 25.013h6.56v64.005h-10.935a10.991 10.991 0 0 0 -9.279 5.119 43.77 43.77 0 0 0 -13.084 2.733 18.524 18.524 0 0 0 -11.8-2.784 236.436 236.436 0 0 1 -7.092-38.094c-1.336-14.249-5.968-22.044-9.773-26.149a15.593 15.593 0 0 0 -5.381-11.273c-7.218-6.28-21.444-17.67-36.907-24.758a23.238 23.238 0 0 0 -1-5.707c12.9-2.108 16.993-18.841 6.514-26.627 5.216-4.285 9.8-11.055 9.582-21.591-.942-30.735-32.149-47.6-56.888-32.719-25.839 1.643-40.107 36.489-19 55.6-8.286 7.93-4.36 22.307 6.689 25.05a21.051 21.051 0 0 0 -.632 6.463c-15.084 7.119-28.881 18.187-35.894 24.287-7.6 7-5.774 14.425-2.457 23.061-6.09 24.062-16.182 68.428-20.361 100.385a15.093 15.093 0 0 1 -4.373 8.929c-12.21 11.063-8.584 29.476 5.854 35.538l-4.5 25.512c-1.861 5.249-.693 17.325 10.927 19.622h149.1a3.5 3.5 0 0 0 2.675-1.243c3.071-.322-8.566-52.633-22.992-83.545 18.264 12.558 44.151 12.292 47.115 12.216 14.2 1.757 27.7-4.579 33.874-11.57v80.642a3.5 3.5 0 0 0 3.5 3.5h18.529a3.5 3.5 0 0 0 3.5-3.5v-86.012a12.226 12.226 0 0 0 9.746-11.956v-28.923a12.227 12.227 0 0 0 -9.746-11.957v-64.254h5.821a25.042 25.042 0 0 0 25.033-25.013zm-71.294 100.015a4 4 0 0 1 4-4h5.394v22.213h-5.4a4 4 0 0 1 -4-4zm-54.512-66.749c-8.441 24.188-18.581 63.522-19 77.982-.254 8.75-3.163 12.34-5.009 13.747-7.633-.515-15.041-.884-22.264-1.114.859-4.414 1.643-9.363 2.357-14.693h5.65a3.5 3.5 0 0 0 0-7h-4.775c.443-3.794.857-7.726 1.242-11.748 2.912 1.405 5.36 3.895 8.449 4.449a3.512 3.512 0 0 0 1.8-6.5c-3.061-1.829-6.276-3.732-9.552-5.659.435-5.114.828-10.315 1.183-15.508 5.1-2.818 8.207-4.517 8.252-4.542a3.5 3.5 0 0 0 -3.357-6.142c-.032.017-1.62.885-4.359 2.394 1.311-21.432 2-41.8 2.33-54.13a29.812 29.812 0 0 0 1.341-3.682c13.891 6.761 26.609 16.981 33.225 22.737a8.64 8.64 0 0 1 2.487 9.409zm-102.708 108.845c.112-4.078-1.115-9.429 4.494-10.21a507.212 507.212 0 0 1 74.1.1c5.633.736 4.479 5.994 4.568 10.109zm0 7h57.354l-.188 8.482h-57.166zm23.227-204.8a14.994 14.994 0 0 1 .349-2.573c3.136 5.259 9.364 10.647 20.553 12.045 3.121.245 4.466-2.528 5.708-7.436a23.935 23.935 0 0 0 5.7 2.936 5.054 5.054 0 0 1 3.31 4.781l-2.011 22.228c-7.18-3.535-20.355-4.876-31.626-.765zm-2.8 45.987c2.432-11.477 19.983-10.148 20.629-10.175 14.17-.242 21.013 6.663 19.74 17.046-1.419 7.086-6.811 15.474-14.3 10.983-4.567-3.093-8.759-6.358-8.8-6.39a3.522 3.522 0 0 0 -5.227 1.085l-3.427 6.291a18.66 18.66 0 0 1 -8.619-18.841zm3.3 23.674c2.543 1.648 7.353 5.712 9.78 1.595l3.162-5.8c6.575 5.243 13.5 9.517 21.712 4.282-.155 4.794-.349 10.184-.59 16-5.4 8.267-11.027 14.667-16.753 19.055-5.712-4.378-11.324-10.76-16.713-19-.25-5.903-.447-11.357-.602-16.133zm15.337 42.338a3.5 3.5 0 0 0 3.948 0 67.816 67.816 0 0 0 14.2-13.544c-.323 6.519-.7 13.32-1.147 20.174-1.615.9-3.363 1.866-5.225 2.9a3.5 3.5 0 0 0 -1.356 4.76c1.374 2.394 4.056 2.081 6.009.661q-.274 3.787-.578 7.542c-10.625-6.2-21.25-12.292-28.915-16.665-.422-6.578-.786-13.089-1.1-19.325a67.735 67.735 0 0 0 14.16 13.496zm-4.634 18.726q-3.73 2.106-7.2 4.083-.346-4.272-.657-8.59c2.435 1.395 5.079 2.911 7.853 4.506zm7.048 4.063c4.175 2.413 8.5 4.924 12.776 7.428-.49 5.4-1.029 10.665-1.622 15.662h-23.148c-.583-4.916-1.114-10.082-1.6-15.388 4.207-2.405 8.749-4.98 13.59-7.703zm10.259 30.09c-.727 5.3-1.524 10.193-2.4 14.506q-8.451-.162-16.573-.05c-.87-4.3-1.665-9.169-2.388-14.456zm12.76-127.87h-1.09l1.431-15.82c10.236.771 9.928 15.479-.341 15.82zm-59.207-49.619c5.121-16.974 21.515-17.576 22.2-17.593a3.5 3.5 0 0 0 2.236-.857c5.782-4.892 16.2-4.441 16.573-4.439 13.984-.012 29.315 11.92 29.715 31.219.168 8.174-3.382 14.366-10.534 18.426l.353-3.9a12.039 12.039 0 0 0 -7.919-11.858c-6.557-2.367-8.281-6.9-8.335-7.044a3.5 3.5 0 0 0 -6.748 1.814 17.112 17.112 0 0 1 -.251 8.976c-13.624-2.753-14.666-12.751-14.7-13.168a3.524 3.524 0 0 0 -5.708-2.469c-5.874 4.805-5.941 13.219-5.941 13.575 0 .074 0 .148.007.222l.881 13.9a14.888 14.888 0 0 0 -3.367.493c-6.904-4.396-12.312-14.533-8.462-27.297zm4.364 41.7a7.926 7.926 0 0 1 7.9-7.917l.905 14.262a16.52 16.52 0 0 0 -1.438 1.546 7.922 7.922 0 0 1 -7.367-7.891zm-27.773 50.447c6.475-5.632 18.951-15.672 32.624-22.442a25.391 25.391 0 0 0 1.971 4.455c.325 11.781 1 31.361 2.254 52.14-2.493-1.415-3.976-2.253-4.044-2.292a3.5 3.5 0 0 0 -3.442 6.1c.1.056 3.163 1.787 8.021 4.553.376 5.55.794 11.117 1.261 16.59q-5.025 2.892-9.333 5.419a3.512 3.512 0 0 0 1.775 6.519c3.009-.523 5.3-2.852 8.252-4.257.379 3.953.784 7.824 1.219 11.556h-5.738a3.5 3.5 0 1 0 0 7h6.613c.708 5.294 1.485 10.214 2.335 14.6-7.59.239-14.971.556-22.251 1.207-1.869-1.424-4.753-5.021-5-13.745-.42-14.46-10.558-53.793-19-77.982a8.64 8.64 0 0 1 2.483-9.421zm-31.885 146.2c-1.191-5 .48-9.731 4.967-14.073a22.11 22.11 0 0 0 6.451-13.068c3.513-27.431 12.084-65.749 17.436-88.36 6.416 21.66 12.243 46.364 12.549 56.905.249 8.606 2.8 13.739 5.308 16.738a11.887 11.887 0 0 0 -3.7 8.59v23.5a155.894 155.894 0 0 0 -8.461 22.455l-20.921-1.487a15.049 15.049 0 0 1 -13.629-11.2zm8.208 43.791c.218-.762 4.4-24.962 4.554-25.651.124.011.246.032.371.041l19.506 1.387c-.882 3.447-1.713 7.128-2.448 11a12.969 12.969 0 0 0 -7.659-2.081 3.5 3.5 0 0 0 .508 6.981c3.2-.049 5.641 2.08 5.352 6.772-.472 3.976-.822 8.089-.994 12.325h-14.428c-6.809-2.544-5.165-9.413-4.762-10.773zm40.51-49.245h58.3l-1.094 49.56a16.913 16.913 0 0 0 3.311 10.463h-74.831a170.84 170.84 0 0 1 14.314-60.023zm74.283 60.023a10.133 10.133 0 0 1 -10.083-10.309l1.439-65.2h4.749c4.983 20.348 12.325 50.112 13.877 75.505zm16.988 0c-1.477-25.37-8.683-55.124-13.678-75.5h8.177c12.548 25.805 20.411 63.2 22.78 75.505zm48.729-72.562c-1.112-.068-31.493 1.076-48.553-15.041a11.885 11.885 0 0 0 -4.372-9.309c2.367-3.049 4.682-8.088 4.918-16.253.384-13.208 9.434-48.651 17.451-72.478 2.029 3.676 4.059 9.3 4.844 17.672a240.257 240.257 0 0 0 7.407 39.669c-3.245 2.158-7.782 6.962-7.782 16.96.079 4.6 6.921 4.6 7 0 .041-9.763 5.583-11.693 6.05-11.852a11.708 11.708 0 0 1 10.518 2.155 3.522 3.522 0 0 0 3.828.406 32.907 32.907 0 0 1 10.2-2.674v12.925a11.009 11.009 0 0 0 11 11h5.391c-.147 4.983-.23 10.062 3.67 13.624-4.662 6.364-14.222 14.83-31.57 13.196zm40.436 72.562v-82.264h11.529v82.264zm21.275-123.392v28.923a5.211 5.211 0 0 1 -5.2 5.205h-16.4a5.211 5.211 0 0 1 -5.211-5.205v-3.76h15.83a3.5 3.5 0 0 0 0-7h-15.83v-8.04h15.83a3.5 3.5 0 0 0 0-7h-15.83v-8.326h21.6a5.212 5.212 0 0 1 5.208 5.203zm-9.746-12.206h-11.532v-64h11.529zm12.821-71.005h-37.91a18.034 18.034 0 0 1 -18.014-18.013c-.663-12.54 1.92-76.427-2.275-87.037 9.364 4.228 9.562 16.5 9.566 17.1v65.806c.707 17.25 25.315 17.28 26.035 0-.642-12.645 1.88-72.154-2.276-82.906 9.363 4.228 9.561 16.5 9.565 17.1v65.806c.706 17.25 25.314 17.28 26.034 0-.641-12.645 1.88-72.154-2.276-82.906 9.365 4.228 9.562 16.5 9.566 17.1v69.942a18.034 18.034 0 0 1 -18.018 18.008z" fill="#3c3c4f"/></svg>